<?xml version="1.0" standalone="no"?>
<!DOCTYPE svg PUBLIC "-//W3C//DTD SVG 20010904//EN"
 "http://www.w3.org/TR/2001/REC-SVG-20010904/DTD/svg10.dtd">
<svg version="1.0" xmlns="http://www.w3.org/2000/svg"
 width="512.000000pt" height="512.000000pt" viewBox="0 0 512.000000 512.000000"
 preserveAspectRatio="xMidYMid meet">
<metadata>
Created by potrace 1.14, written by Peter Selinger 2001-2017
</metadata>
<g transform="translate(0.000000,512.000000) scale(0.100000,-0.100000)"
fill="#000000" stroke="none">
<path d="M2484 5039 c-4 -7 -3 -9 4 -5 5 3 13 0 15 -6 4 -9 6 -10 6 -1 1 17
-16 25 -25 12z"/>
<path d="M2216 5019 c4 -13 -1 -16 -20 -14 -15 2 -24 -1 -20 -6 3 -5 1 -9 -4
-9 -6 0 -8 -10 -6 -22 5 -23 5 -23 -6 0 -8 19 -30 23 -30 6 0 -3 5 -2 12 2 7
4 8 3 4 -5 -12 -18 -27 -2 -22 22 3 12 -1 7 -9 -10 -8 -18 -18 -33 -21 -33 -3
0 -2 5 1 10 6 9 -8 14 -29 11 -4 -1 -16 4 -25 11 -14 12 -15 11 -2 -5 8 -10
21 -15 30 -12 12 5 13 3 5 -5 -9 -9 -18 -9 -35 1 -21 11 -22 10 -12 -3 11 -12
8 -14 -20 -10 -30 5 -31 4 -17 -13 14 -17 14 -17 -20 0 l-35 18 20 -24 c12
-15 14 -19 4 -11 -21 16 -62 24 -54 11 4 -5 10 -7 15 -4 5 3 11 1 15 -4 8 -13
-33 -5 -54 11 -10 8 -9 4 4 -11 l20 -24 -25 13 c-24 13 -24 12 -10 -5 12 -15
12 -17 1 -10 -8 4 -25 9 -37 11 -19 2 -23 -2 -21 -19 1 -14 -4 -22 -13 -22 -8
0 -19 -4 -23 -10 -5 -6 -6 -2 -3 9 5 14 2 17 -10 12 -8 -3 -18 -6 -20 -6 -3 0
-2 -6 2 -12 4 -7 4 -10 -1 -6 -4 4 -15 2 -23 -5 -10 -7 -13 -8 -9 -1 4 7 -2
14 -13 17 -11 3 -18 0 -17 -7 1 -6 -4 -10 -11 -8 -8 1 -11 -2 -7 -8 5 -8 11
-7 21 1 12 10 13 9 8 -4 -3 -8 -12 -18 -20 -21 -8 -3 -13 -2 -10 3 7 10 -19
23 -28 14 -3 -4 -1 -12 5 -19 9 -11 5 -11 -21 -4 -26 7 -31 6 -26 -5 8 -21
-10 -28 -36 -14 l-23 12 20 -23 20 -23 -22 12 c-15 8 -23 8 -23 1 0 -5 -5 -10
-11 -10 -5 0 -7 5 -3 12 4 7 3 8 -5 4 -6 -4 -10 -14 -9 -21 2 -8 -1 -14 -6
-13 -5 0 -12 -6 -16 -12 -5 -9 -9 -9 -14 -1 -6 10 6 15 27 12 12 -2 8 6 -10
20 -10 7 -15 10 -11 5 4 -5 -3 -17 -15 -28 -12 -11 -16 -17 -9 -13 6 3 12 1
12 -6 0 -7 -13 -10 -35 -7 -23 3 -32 1 -25 -6 15 -15 12 -30 -4 -17 -10 8 -16
9 -21 1 -3 -6 -11 -7 -17 -4 -6 4 -8 2 -5 -3 10 -16 -18 -23 -34 -10 -11 10
-11 9 -1 -4 6 -9 8 -20 4 -24 -13 -14 22 7 45 28 20 18 21 18 19 1 -2 -11 -7
-18 -12 -17 -5 0 -27 -12 -48 -28 -22 -16 -45 -29 -50 -29 -6 1 0 7 13 14 15
8 20 16 12 20 -6 4 -11 2 -11 -4 0 -6 -4 -9 -9 -5 -5 3 -12 -3 -16 -14 -3 -11
-13 -22 -21 -25 -8 -3 -13 -10 -10 -15 3 -4 -5 -7 -19 -6 -13 2 -26 -3 -29
-10 -3 -10 1 -12 12 -9 14 5 15 4 2 -4 -9 -7 -18 -7 -26 -1 -8 7 -10 1 -8 -18
2 -25 1 -26 -10 -10 -18 23 -29 22 -16 -3 9 -16 8 -20 -5 -20 -10 0 -13 -5 -9
-12 6 -10 4 -10 -8 0 -13 10 -17 10 -22 -3 -3 -9 -2 -13 3 -10 5 3 12 1 16 -4
3 -6 -3 -8 -14 -6 -11 2 -22 -3 -25 -12 -5 -12 -9 -13 -20 -4 -11 9 -16 9 -22
0 -4 -7 -3 -9 3 -6 11 7 27 -33 18 -42 -3 -2 -5 1 -5 8 0 7 -5 9 -12 5 -7 -4
-8 -3 -4 4 4 7 3 12 -2 12 -6 0 -13 -7 -16 -16 -8 -22 -8 -26 4 -19 6 3 7 -1
3 -10 -4 -13 -8 -14 -14 -4 -4 7 -17 13 -28 14 l-21 2 20 -19 c25 -24 26 -32
1 -18 -24 12 -42 -7 -20 -21 12 -7 11 -9 -1 -9 -13 0 -13 -2 0 -11 12 -9 12
-10 -3 -5 -10 3 -21 6 -23 6 -3 0 -3 4 0 8 3 5 -2 9 -10 9 -9 0 -11 -4 -5 -10
13 -13 2 -37 -18 -38 -10 0 -11 -2 -3 -6 6 -2 12 -9 12 -14 0 -6 -7 -6 -18 0
-14 7 -19 6 -19 -4 0 -8 5 -11 10 -8 6 4 7 1 3 -6 -5 -7 -15 -10 -23 -7 -9 4
-11 2 -6 -7 12 -20 12 -37 0 -34 -7 1 -11 -4 -9 -11 1 -8 -2 -11 -8 -7 -8 5
-5 13 6 26 16 18 16 19 1 13 -9 -3 -17 -10 -17 -16 0 -5 -4 -6 -10 -3 -6 4 -7
-1 -3 -11 5 -13 3 -15 -7 -9 -9 5 -11 4 -6 -4 4 -6 12 -9 17 -6 5 4 9 1 9 -4
0 -6 -11 -11 -24 -11 -24 0 -54 -26 -42 -37 3 -3 6 -2 6 4 0 6 6 13 13 16 8 3
14 -1 14 -9 0 -7 -5 -10 -10 -7 -6 4 -8 0 -5 -9 5 -11 0 -14 -17 -13 -23 3
-29 -19 -9 -33 5 -4 -2 -18 -15 -31 -13 -13 -22 -17 -18 -9 3 8 -1 15 -8 15
-7 0 -10 -8 -7 -20 4 -16 1 -19 -11 -14 -11 4 -14 2 -10 -8 3 -8 9 -12 14 -9
5 3 9 1 9 -5 0 -5 -9 -13 -20 -16 -11 -3 -20 -11 -20 -16 0 -6 -4 -8 -8 -5 -5
3 -9 -2 -9 -10 0 -9 6 -13 14 -10 8 4 11 1 7 -5 -3 -6 -15 -9 -25 -6 -11 3
-17 2 -14 -3 5 -8 -25 -38 -32 -32 -3 2 -8 1 -11 -3 -4 -4 -2 -6 3 -5 22 5 27
-1 14 -17 -13 -16 -12 -17 3 -5 12 10 18 10 24 1 5 -8 3 -9 -6 -4 -10 6 -12 4
-7 -8 4 -12 2 -14 -11 -10 -15 6 -16 5 -2 -12 14 -17 14 -18 -8 -6 -12 7 -20
17 -16 23 4 7 2 8 -5 4 -9 -6 -9 -11 -1 -21 8 -10 8 -14 -2 -17 -8 -3 -6 -7 6
-11 12 -5 15 -3 10 6 -5 8 -2 7 9 -2 18 -14 23 -26 8 -16 -6 3 -15 -3 -21 -12
-8 -13 -10 -13 -7 -3 3 11 -2 16 -17 17 -11 0 -15 -1 -8 -4 16 -6 16 -33 0
-33 -9 0 -8 -3 2 -9 8 -6 18 -7 24 -4 5 3 6 1 2 -5 -4 -6 -13 -9 -20 -6 -18 7
-30 -12 -15 -22 8 -5 9 -3 4 6 -5 9 -4 11 3 6 8 -5 9 -13 2 -25 -5 -10 -6 -22
-2 -26 4 -5 1 -5 -6 -1 -6 4 -12 3 -12 -3 0 -6 -7 -8 -15 -5 -11 5 -14 2 -9
-12 4 -11 11 -24 15 -30 5 -6 3 -11 -6 -11 -8 0 -12 3 -10 7 2 3 -1 12 -6 20
-7 12 -8 10 -6 -7 2 -11 8 -27 15 -35 9 -12 9 -15 -3 -15 -8 0 -11 5 -8 10 3
6 1 7 -6 3 -9 -6 -9 -11 1 -23 11 -14 10 -15 -12 -10 -14 4 -20 4 -13 1 7 -3
9 -13 6 -22 -4 -13 -3 -14 5 -4 7 11 10 11 15 -3 5 -11 3 -14 -5 -9 -8 5 -9 2
-4 -11 5 -14 4 -15 -7 -7 -9 8 -17 8 -27 0 -12 -8 -12 -9 3 -4 9 3 17 1 17 -4
0 -6 -5 -10 -10 -10 -7 0 -7 -7 0 -20 6 -11 7 -19 3 -18 -4 2 -8 -1 -8 -7 0
-5 4 -9 9 -7 5 2 5 -3 -1 -10 -5 -7 -9 -28 -7 -47 1 -21 -1 -29 -6 -20 -5 7
-7 26 -5 41 2 16 0 26 -5 23 -5 -3 -6 -13 -3 -22 4 -9 2 -14 -3 -10 -5 3 -10
-3 -10 -13 0 -10 4 -16 8 -14 4 3 8 -2 8 -11 0 -11 -5 -15 -15 -11 -8 3 -14 0
-12 -7 1 -7 -5 -10 -13 -9 -8 2 -12 0 -7 -4 4 -4 18 -9 30 -11 18 -2 19 -1 7
8 -12 8 -12 10 -1 7 8 -2 15 -17 16 -32 1 -23 -1 -25 -11 -12 -16 23 -27 20
-14 -4 6 -12 7 -20 1 -20 -5 0 -11 5 -13 12 -3 7 -7 5 -11 -6 -4 -9 -3 -15 2
-12 5 3 14 0 20 -8 9 -10 7 -17 -6 -27 -16 -13 -17 -12 -4 4 9 11 10 17 2 17
-6 0 -11 -5 -11 -11 0 -5 -5 -7 -11 -3 -6 3 -4 -4 5 -18 13 -21 14 -27 1 -51
-13 -25 -12 -28 8 -42 19 -13 17 -20 -6 -16 -4 1 -3 -8 3 -19 6 -11 7 -19 3
-18 -8 3 -14 -7 -12 -17 5 -19 3 -31 -6 -37 -6 -5 -6 -8 3 -8 6 0 12 -9 12
-21 0 -13 4 -18 13 -13 6 4 1 -5 -13 -21 -14 -16 -20 -25 -14 -22 7 4 15 0 18
-9 4 -10 2 -13 -6 -8 -7 5 -9 2 -5 -8 9 -25 -4 -30 -32 -12 -14 9 -20 11 -13
3 17 -19 15 -34 -3 -19 -13 11 -14 10 -9 -4 3 -9 11 -16 17 -16 6 0 7 -3 4 -7
-4 -3 -15 1 -25 10 -15 14 -19 15 -19 2 0 -8 4 -12 9 -9 4 3 8 0 8 -7 0 -6 -8
-9 -19 -6 -14 3 -18 1 -14 -9 3 -8 10 -11 17 -8 6 3 3 -1 -6 -8 -15 -13 -15
-15 0 -26 16 -10 16 -11 -1 -6 -14 5 -16 2 -10 -12 4 -11 13 -25 20 -32 6 -7
10 -20 7 -30 -5 -13 -4 -14 4 -4 7 11 10 11 15 -2 4 -9 13 -13 22 -10 8 3 12
11 8 18 -3 6 0 6 8 -2 17 -16 20 -63 5 -81 -8 -11 -8 -13 0 -8 7 4 14 0 18 -8
3 -8 1 -15 -4 -15 -5 0 -7 -7 -4 -15 4 -8 10 -12 15 -9 15 9 10 -3 -8 -17 -14
-12 -16 -12 -8 0 5 10 4 12 -4 7 -7 -5 -9 -12 -3 -19 8 -11 12 -41 16 -112 1
-16 -6 -36 -14 -43 -8 -8 -9 -11 -2 -7 6 3 12 1 12 -5 0 -6 5 -8 12 -4 7 4 8
3 4 -5 -4 -6 -11 -9 -15 -7 -4 3 -8 -1 -8 -9 0 -8 7 -15 16 -16 10 0 8 -4 -6
-9 -13 -5 -23 -12 -23 -15 0 -4 4 -4 9 -1 5 3 12 -1 15 -10 3 -8 2 -12 -4 -9
-6 3 -10 1 -10 -4 0 -6 -5 -11 -11 -11 -5 0 -7 5 -3 12 4 7 3 8 -5 4 -9 -6 -9
-11 1 -24 11 -13 10 -15 -5 -9 -12 5 -16 3 -11 -5 5 -8 1 -9 -12 -5 -14 5 -12
2 6 -12 21 -16 22 -19 6 -18 -10 1 -21 -5 -23 -13 -4 -13 -3 -13 6 0 8 12 10
11 8 -7 0 -12 -5 -19 -9 -17 -8 5 -11 -5 -11 -38 0 -10 -3 -15 -8 -13 -4 3 -6
14 -4 25 2 11 0 20 -5 20 -5 0 -8 -8 -8 -17 1 -10 -2 -28 -6 -40 -5 -15 -3
-23 4 -23 6 0 8 5 5 10 -3 6 -1 10 4 10 16 0 13 -20 -4 -26 -21 -8 -19 -25 3
-18 12 4 13 3 4 -3 -7 -6 -12 -14 -11 -19 1 -5 0 -11 -1 -14 -1 -3 -3 -17 -4
-32 -1 -19 3 -28 14 -29 9 0 7 -3 -6 -9 -12 -5 -25 -15 -29 -22 -6 -10 -5 -11
6 0 19 17 34 15 19 -3 -11 -13 -10 -14 3 -10 8 4 18 1 23 -6 4 -7 3 -10 -2 -6
-6 3 -16 1 -24 -4 -13 -8 -12 -11 3 -23 18 -14 24 -32 7 -21 -6 3 -10 1 -10
-4 0 -6 4 -11 9 -11 14 0 21 -29 9 -36 -7 -4 -8 -3 -4 4 5 8 1 10 -10 5 -11
-4 -13 -8 -6 -11 7 -2 9 -9 6 -15 -5 -8 -2 -8 7 1 20 18 34 15 18 -5 -12 -14
-12 -15 0 -9 10 7 11 3 6 -15 -7 -21 -6 -22 9 -10 14 12 16 12 10 -3 -3 -9
-11 -16 -17 -16 -6 0 -2 -7 9 -16 10 -8 14 -13 8 -10 -7 3 -15 -1 -18 -10 -3
-8 -2 -12 4 -9 6 3 10 2 10 -4 0 -5 -6 -12 -12 -15 -7 -4 -2 -4 10 -2 23 5 24
4 5 -16 -10 -12 -12 -18 -6 -14 7 4 13 2 13 -4 0 -6 5 -8 12 -4 7 5 8 3 4 -5
-5 -7 0 -22 11 -34 15 -19 16 -20 1 -8 -11 8 -18 9 -18 3 0 -6 -3 -17 -6 -25
-3 -8 2 -17 12 -21 14 -5 15 -4 4 9 -10 12 -10 15 3 15 9 0 14 -7 12 -18 -2
-9 -4 -17 -5 -17 -7 0 -6 -36 1 -41 6 -4 6 -10 0 -18 -8 -9 -5 -19 9 -33 10
-12 17 -23 14 -25 -7 -8 22 -57 42 -74 11 -9 14 -13 8 -10 -7 3 -14 -1 -18 -9
-3 -8 -1 -15 4 -15 6 0 9 -6 7 -13 -1 -6 3 -11 10 -10 8 2 8 -5 -2 -24 -8 -15
-10 -32 -6 -37 5 -6 7 -19 6 -29 -3 -15 -1 -16 11 -6 11 9 12 15 3 25 -9 11
-8 14 2 14 11 0 11 3 -1 11 -13 9 -13 10 0 6 10 -2 14 -15 13 -36 -1 -21 2
-29 10 -25 7 4 9 4 5 -1 -4 -4 0 -14 10 -22 15 -13 14 -13 -6 -3 -13 7 -25 10
-27 8 -6 -5 19 -34 35 -41 13 -4 12 -6 -1 -6 -9 -1 -20 -9 -24 -19 -5 -14 -4
-15 6 -5 7 7 20 13 28 13 14 0 14 -2 2 -9 -17 -11 -25 -51 -10 -51 5 0 7 -5 4
-10 -4 -6 -3 -10 2 -9 19 3 31 -2 37 -16 5 -13 2 -14 -17 -4 -18 10 -20 10
-11 -2 5 -8 10 -26 9 -41 0 -15 3 -24 7 -22 4 3 8 1 8 -4 0 -5 11 -14 23 -19
27 -12 32 -43 8 -43 -9 -1 -1 -7 17 -15 31 -14 46 -30 17 -19 -8 4 -15 1 -15
-5 0 -6 8 -11 18 -12 10 0 12 -3 5 -6 -7 -2 -13 -9 -13 -14 0 -6 4 -8 9 -5 5
3 11 -1 14 -9 4 -9 1 -12 -9 -8 -7 3 -14 0 -14 -6 0 -6 3 -10 8 -10 21 4 31
-3 26 -16 -4 -8 -11 -12 -18 -8 -6 3 -7 2 -3 -2 12 -14 38 -15 30 -2 -3 7 -2
8 2 4 11 -10 17 -33 18 -74 0 -18 4 -30 9 -27 8 5 12 -9 9 -32 -1 -7 6 -14 14
-18 9 -3 13 -10 10 -16 -3 -5 -1 -10 4 -10 14 0 14 17 1 25 -6 4 -7 11 -4 17
4 6 3 8 -3 5 -5 -3 -10 0 -10 8 0 11 4 12 14 3 7 -6 11 -13 9 -15 -3 -3 5 -21
16 -41 12 -21 21 -47 20 -60 -1 -12 3 -22 9 -22 5 0 7 5 4 10 -3 6 -1 10 4 10
6 0 11 -9 11 -21 0 -13 -4 -18 -12 -13 -7 4 -8 3 -4 -4 4 -6 14 -8 22 -5 10 4
15 1 14 -8 -1 -8 -2 -22 -1 -32 1 -17 2 -17 17 -3 19 19 31 21 16 3 -6 -7 -10
-23 -9 -35 1 -21 14 -27 47 -22 9 1 6 -6 -9 -19 -13 -12 -19 -21 -13 -21 6 0
14 5 17 10 4 6 12 4 21 -5 9 -8 21 -12 27 -8 9 5 9 3 2 -8 -6 -8 -10 -21 -9
-29 1 -8 2 -21 3 -27 0 -7 4 -12 9 -12 20 3 33 -2 27 -11 -4 -6 -3 -10 2 -9
21 4 43 -2 43 -12 0 -5 -4 -8 -9 -4 -5 3 -13 0 -17 -7 -4 -7 -3 -10 1 -5 5 4
17 -1 28 -10 11 -10 17 -12 13 -5 -4 6 -2 12 3 12 6 0 11 -6 11 -14 0 -18 25
-26 63 -21 20 2 30 -2 38 -18 10 -21 10 -21 -5 -3 -9 11 -16 14 -16 8 0 -7 -5
-12 -11 -12 -5 0 -7 5 -3 12 4 7 3 8 -5 4 -9 -6 -9 -11 0 -22 10 -12 14 -12
20 -2 8 13 13 3 9 -17 -1 -5 4 -4 11 3 17 16 43 16 33 -1 -5 -8 -2 -8 9 2 12
10 17 10 17 2 0 -8 6 -7 16 4 12 12 19 13 30 4 13 -10 18 -6 15 14 0 4 4 7 10
7 6 0 9 -7 6 -15 -5 -10 1 -14 22 -12 18 1 28 7 27 17 -1 9 7 15 21 14 12 0
21 2 19 5 -2 3 0 15 5 26 6 15 8 16 8 4 1 -9 8 -20 17 -23 14 -5 15 -4 5 8
-11 13 -9 15 8 11 14 -2 18 1 14 11 -3 7 -10 11 -17 7 -6 -3 -7 -2 -3 3 5 5
13 10 18 10 5 1 14 2 20 3 5 0 7 6 3 12 -4 8 1 9 15 4 18 -5 22 -3 19 12 -2
10 2 17 10 16 17 -4 15 2 -5 18 -10 8 -14 9 -10 2 4 -6 3 -14 -3 -18 -6 -4 -7
-11 -4 -17 4 -7 2 -8 -5 -4 -8 5 -9 12 -3 19 5 7 8 20 7 29 -3 15 0 16 16 7
18 -9 19 -8 7 10 -6 11 -15 18 -18 16 -3 -2 -12 1 -20 7 -12 8 -12 9 3 4 9 -3
17 -1 17 4 0 6 -7 10 -16 10 -14 0 -14 3 -4 15 7 9 10 18 6 22 -3 3 -6 1 -6
-5 0 -14 -36 -16 -44 -3 -3 5 1 12 10 15 10 4 13 2 8 -7 -4 -6 -3 -8 1 -4 15
13 14 36 -1 30 -7 -2 -23 2 -36 11 -12 9 -16 16 -9 16 8 0 11 7 8 20 -3 10 0
21 7 24 6 3 1 3 -11 0 -26 -6 -43 17 -43 59 0 8 -4 7 -11 -3 -8 -12 -9 -10 -4
8 4 14 2 22 -6 22 -7 0 -9 3 -6 7 4 3 15 -2 26 -11 14 -13 21 -14 27 -5 4 7 3
10 -4 5 -10 -6 -27 10 -27 26 0 4 -7 16 -16 26 -8 10 -15 28 -14 40 1 11 -2
19 -7 16 -5 -4 -7 -12 -4 -20 3 -8 1 -14 -5 -14 -6 0 -9 14 -7 31 2 24 -2 34
-22 46 -16 9 -18 12 -5 8 11 -3 16 -3 12 1 -4 4 -1 14 5 23 7 9 8 13 4 9 -5
-4 -15 -3 -23 3 -9 9 -13 8 -13 0 0 -6 -5 -11 -12 -11 -6 0 -1 12 13 26 l24
27 -25 -13 c-24 -13 -24 -12 -10 5 8 10 10 16 4 12 -16 -9 -25 16 -12 34 7 11
8 9 3 -6 -5 -15 -3 -17 6 -8 21 21 -1 36 -24 16 -12 -9 -17 -11 -10 -4 6 7 9
20 6 29 -4 10 -2 13 5 8 6 -3 14 -2 17 4 4 6 1 9 -7 8 -7 -2 -12 2 -11 8 1 6
-8 11 -20 10 -21 -1 -30 17 -18 39 10 18 10 35 0 29 -5 -3 -7 -9 -5 -13 3 -4
-1 -8 -9 -8 -10 0 -12 4 -5 11 5 7 8 26 8 44 -1 28 -4 32 -22 26 -19 -6 -20
-5 -6 11 9 11 10 16 2 11 -7 -4 -12 -2 -12 4 0 6 -5 8 -12 4 -7 -4 -8 -3 -4 5
4 6 11 9 15 7 4 -3 8 4 8 15 1 10 -3 19 -8 19 -6 0 -7 -6 -3 -12 5 -10 4 -10
-6 -1 -10 9 -10 16 -2 25 8 10 5 20 -9 38 -16 19 -18 20 -10 4 7 -16 7 -21 -4
-21 -7 0 -11 7 -7 15 4 11 1 13 -9 8 -8 -4 -3 3 11 15 14 12 18 20 9 17 -22
-8 -53 52 -47 91 3 18 1 28 -6 24 -5 -4 -7 1 -2 12 5 15 4 16 -8 6 -11 -9 -16
-9 -22 0 -5 8 -3 9 5 4 9 -5 12 -1 10 11 -2 11 0 25 4 31 6 9 3 11 -9 6 -14
-5 -15 -3 -5 15 14 26 14 43 0 19 -11 -19 -29 -23 -29 -6 0 5 4 7 10 4 5 -3
10 -1 10 4 0 6 -5 11 -11 11 -6 0 -9 10 -7 23 2 12 9 21 16 19 8 -1 11 2 7 8
-3 6 -10 8 -14 6 -11 -7 -51 23 -51 37 0 7 5 4 11 -5 5 -10 15 -18 22 -18 8 0
7 3 -2 9 -8 5 -11 16 -8 24 3 9 -2 21 -11 29 -15 12 -16 11 -3 -4 9 -12 10
-18 2 -18 -11 0 -15 13 -12 37 1 7 -7 10 -19 8 -11 -2 -18 0 -15 6 4 5 10 7
15 4 5 -3 11 -1 15 5 3 5 1 10 -4 10 -6 0 -11 5 -11 11 0 5 4 7 10 4 6 -3 7 1
4 9 -3 9 -14 16 -23 16 -14 0 -14 -2 -1 -10 8 -5 10 -10 4 -10 -23 0 -23 14
-2 39 13 14 15 19 6 12 -16 -12 -18 -11 -18 13 0 14 5 26 12 26 6 0 8 3 5 6
-4 4 -13 2 -21 -5 -11 -9 -15 -8 -20 4 -3 10 -11 13 -18 9 -7 -5 -5 4 5 19 20
31 21 37 6 37 -5 0 -8 -4 -5 -8 3 -5 -1 -9 -9 -9 -20 0 -19 6 8 30 15 14 17
18 5 14 -10 -3 -19 0 -22 9 -4 10 -2 12 6 8 7 -4 8 -3 4 4 -4 7 -2 12 3 12 6
0 11 5 11 11 0 5 -5 7 -10 4 -6 -3 -13 1 -16 10 -5 12 -9 13 -20 4 -8 -6 -14
-7 -14 -2 0 6 10 15 23 21 l22 12 -24 -3 c-14 -1 -26 4 -28 13 -4 13 -3 13 6
0 9 -12 11 -11 11 8 0 12 -4 22 -10 22 -5 0 -10 5 -10 11 0 5 4 8 8 5 5 -3 9
1 9 9 0 8 -4 12 -9 9 -4 -3 -8 2 -8 11 0 10 5 13 12 9 7 -5 8 -3 4 5 -6 9 -13
8 -28 -6 -20 -18 -21 -17 -10 2 11 22 -2 60 -18 50 -10 -6 -7 21 3 31 11 12 8
26 -4 18 -8 -5 -8 -1 0 14 14 26 14 42 0 22 -9 -12 -10 -12 -5 4 4 11 1 23 -6
28 -11 6 -10 8 0 8 10 0 9 5 -3 17 -16 16 -16 17 1 30 11 8 13 13 5 13 -11 0
-11 3 0 17 8 9 9 14 4 11 -6 -4 -21 0 -35 8 l-25 15 29 -6 30 -6 -25 20 c-21
17 -22 20 -7 26 15 6 16 9 3 22 -9 8 -12 19 -9 25 4 6 2 8 -4 4 -6 -3 -13 -2
-16 2 -8 14 -56 8 -68 -8 -8 -12 -9 -12 -4 3 3 10 0 17 -8 17 -19 0 -27 37
-10 51 17 14 18 29 3 29 -5 0 -7 -5 -3 -12 4 -7 3 -8 -4 -4 -6 4 -9 13 -6 20
3 8 0 17 -6 21 -8 5 -8 11 1 21 6 7 9 20 6 28 -4 9 -1 13 6 10 7 -2 13 4 14
16 1 11 -3 20 -8 20 -6 0 -7 -5 -3 -12 4 -7 3 -8 -5 -4 -9 6 -9 11 1 23 14 18
22 57 9 49 -5 -3 -11 3 -14 15 -4 16 -3 18 9 8 9 -7 14 -8 14 -1 0 6 9 9 19 7
15 -3 19 2 16 21 -1 13 2 27 7 30 4 3 5 10 2 16 -4 7 -2 8 5 4 6 -4 9 -11 6
-16 -3 -5 -1 -11 4 -14 5 -4 8 5 7 18 -2 17 1 23 11 19 8 -3 12 -12 8 -22 -5
-13 -4 -13 6 -4 10 10 9 17 -7 34 -17 20 -17 22 -2 16 14 -5 17 -2 15 13 -2
11 -10 26 -17 33 -12 10 -12 9 -2 -5 10 -12 10 -18 1 -24 -7 -4 -9 -3 -5 4 3
6 2 14 -4 17 -8 5 -7 11 1 21 7 9 8 14 1 14 -6 0 -14 10 -17 21 -6 17 -9 19
-16 8 -7 -12 -10 -12 -21 0 -11 11 -11 13 1 6 9 -5 12 -4 8 3 -4 5 -17 8 -30
5 -18 -4 -19 -3 -7 6 13 9 13 11 0 11 -11 0 -11 3 -2 12 15 15 15 28 1 28 -5
0 -7 -6 -3 -12 4 -7 3 -10 -1 -5 -13 12 -14 48 -1 38 7 -6 11 -1 12 15 2 20
-1 23 -12 13 -19 -16 -18 -4 2 15 10 10 11 16 3 16 -8 0 -8 5 2 17 12 14 12
16 0 8 -11 -6 -13 -4 -8 7 3 9 0 21 -6 28 -9 10 -6 9 13 0 22 -12 23 -11 13 2
-7 8 -9 19 -5 23 4 5 -2 5 -12 1 -16 -5 -17 -4 -6 9 7 8 17 12 24 9 6 -3 2 2
-8 10 -11 9 -16 16 -12 16 5 0 2 8 -5 18 -10 13 -8 12 10 -3 l24 -20 -17 32
c-11 22 -13 34 -5 39 8 4 7 9 -2 15 -10 6 -10 9 -2 9 7 0 11 6 9 13 -1 6 -1 9
1 4 3 -4 9 -5 14 -1 5 3 9 0 9 -5 0 -6 -4 -11 -8 -11 -5 0 -9 -7 -9 -16 0 -14
2 -14 14 2 7 10 11 25 8 32 -4 10 0 12 12 8 16 -5 16 -4 3 7 -8 7 -21 24 -29
37 -13 23 -13 24 2 11 16 -12 17 -10 13 27 -3 32 -1 39 11 35 12 -5 12 -7 1
-14 -7 -5 -8 -9 -2 -9 21 0 24 14 7 33 -17 19 -17 20 3 9 18 -10 21 -9 20 6 0
9 5 17 12 18 6 1 18 2 25 3 8 1 8 4 -3 11 -10 6 -20 4 -31 -6 -18 -16 -29 -18
-29 -4 0 6 6 9 12 8 7 -2 12 2 11 7 -1 6 8 12 20 12 12 1 23 7 25 13 2 5 7 8
12 5 4 -3 6 5 2 17 -3 15 -2 19 7 14 6 -4 11 -4 10 1 -1 4 0 13 1 18 1 6 3 24
3 40 2 24 6 29 21 27 18 -3 18 -2 2 13 -17 17 -13 35 7 35 8 0 8 -3 -1 -9 -11
-7 -10 -9 3 -14 9 -4 13 -3 10 3 -3 6 0 10 7 10 7 1 2 7 -11 14 -20 11 -21 14
-7 19 10 4 15 3 12 -1 -3 -5 1 -9 8 -9 8 0 12 6 9 14 -5 12 8 18 30 14 4 0 7
4 7 10 0 6 -7 8 -15 5 -8 -3 -22 -9 -30 -12 -8 -3 -15 -1 -15 5 0 6 3 10 8 9
18 -4 63 23 56 34 -5 7 -2 9 8 6 12 -5 15 0 13 23 -2 18 1 26 8 22 7 -4 8 0 3
12 -5 14 -4 16 7 7 18 -15 30 -3 16 14 -8 10 -5 12 15 8 15 -2 26 0 26 6 0 6
-5 8 -10 5 -6 -3 -10 -1 -10 5 0 6 -5 8 -12 4 -7 -4 -8 -3 -4 5 4 6 12 9 17 5
6 -3 16 1 22 9 7 9 18 17 26 19 20 4 65 47 58 55 -4 3 -7 2 -7 -4 0 -5 -12
-15 -27 -22 -24 -10 -26 -9 -11 2 10 8 14 17 10 21 -4 4 -2 7 3 5 16 -4 45 12
40 21 -3 5 -1 11 4 14 5 4 13 1 17 -5 4 -7 3 -9 -2 -6 -5 3 -10 -3 -10 -14 0
-19 1 -19 13 -3 7 9 10 21 7 25 -3 5 0 9 6 9 6 0 8 5 4 12 -5 7 -3 8 7 2 16
-10 44 -15 35 -7 -10 11 15 45 30 39 8 -3 14 -1 14 4 0 5 8 7 17 4 14 -5 15
-4 4 4 -8 6 -20 8 -28 5 -7 -3 -13 1 -13 8 0 7 3 9 7 5 4 -3 12 3 18 15 11 19
13 19 18 5 5 -11 3 -15 -5 -10 -7 4 -8 3 -4 -4 5 -9 13 -9 27 -2 11 6 17 16
13 21 -3 6 0 9 7 8 8 -2 24 0 36 5 18 6 20 10 10 21 -6 7 -16 10 -21 7 -5 -3
-6 0 -2 7 5 8 13 7 28 -4 26 -18 56 -2 38 20 -8 10 -8 15 1 21 7 4 9 3 6 -3
-4 -6 1 -14 10 -17 10 -4 14 -4 10 0 -6 7 21 33 35 34 3 0 9 -8 12 -17 2 -10
4 -5 3 12 -1 17 3 30 10 30 6 0 15 3 19 8 4 4 12 7 18 7 6 0 4 -5 -4 -10 -13
-8 -12 -10 3 -10 9 0 17 5 17 11 0 6 7 8 16 5 12 -5 14 -1 8 17 l-6 22 20 -23
c17 -19 21 -20 26 -7 3 9 2 14 -3 11 -5 -3 -12 1 -15 10 -3 8 -2 12 3 9 5 -3
12 -1 16 4 3 5 14 9 25 8 10 -1 17 -4 14 -8 -2 -4 1 -11 7 -15 7 -4 9 -3 6 2
-3 6 -2 16 4 24 5 9 9 10 9 3 0 -6 9 -11 19 -10 11 0 17 5 15 9 -5 8 10 12 34
9 6 -1 12 3 12 10 0 6 7 8 16 5 14 -5 15 -4 4 9 -11 13 -10 14 5 9 13 -5 16
-4 10 5 -6 10 -3 11 14 2 11 -7 21 -8 21 -4 0 4 5 1 10 -7 6 -9 10 -11 10 -3
0 7 7 10 18 7 13 -5 14 -4 3 4 -9 7 -10 12 -2 16 6 4 9 11 6 16 -3 5 31 7 76
6 44 -1 83 2 86 8 3 5 1 6 -4 3 -6 -4 -13 0 -16 8 -4 9 -1 12 9 8 8 -3 25 3
37 13 15 13 18 14 9 3 -10 -14 -10 -18 3 -23 10 -3 13 -11 9 -18 -5 -9 -3 -9
9 1 9 7 17 10 17 6 0 -5 9 0 19 9 12 11 25 15 33 10 9 -5 8 -2 -2 11 -14 17
-14 18 5 8 24 -12 48 -6 38 10 -4 7 2 5 12 -3 10 -8 16 -10 12 -3 -4 6 -2 15
4 19 7 4 9 3 6 -2 -3 -6 -2 -16 4 -24 7 -12 9 -9 10 10 1 18 3 20 6 7 4 -14 8
-16 19 -6 7 6 11 16 7 22 -3 6 -1 7 6 3 9 -6 9 -11 0 -22 -15 -18 0 -18 25 1
10 8 23 12 28 9 5 -3 14 -1 21 4 17 13 49 6 64 -14 7 -10 13 -12 13 -6 0 8 10
11 24 8 18 -3 23 -1 19 10 -3 8 -11 14 -18 14 -8 0 -17 4 -20 10 -8 13 26 1
47 -18 15 -13 20 -13 35 -1 15 12 16 12 10 -4 -4 -11 -3 -16 4 -12 5 4 18 1
27 -6 12 -10 12 -8 -2 9 -20 23 -20 23 0 16 17 -7 18 -6 4 12 -14 17 -14 18 2
6 10 -8 16 -18 15 -24 -1 -6 10 -12 26 -13 15 -2 27 1 27 6 0 6 -4 7 -10 4 -5
-3 -10 -2 -10 3 0 5 9 12 19 15 14 3 18 1 14 -9 -4 -10 0 -12 13 -7 11 4 15 3
10 -5 -3 -6 -2 -13 3 -16 11 -7 9 13 -4 34 -8 13 -6 13 8 1 20 -16 52 -7 41
11 -6 10 -5 11 8 1 8 -7 19 -9 23 -5 5 4 5 2 1 -5 -4 -7 3 -17 16 -24 20 -11
22 -10 10 3 -11 13 -10 16 5 14 10 0 17 5 15 12 -1 8 2 11 8 7 7 -4 7 -13 -1
-26 -6 -12 -8 -23 -5 -27 3 -3 6 -1 6 4 0 5 9 10 20 10 11 0 20 -4 20 -9 0 -4
6 -2 14 5 8 7 11 18 8 23 -3 6 2 4 11 -4 19 -15 23 -26 5 -15 -7 4 -8 3 -4 -5
6 -9 11 -9 23 1 18 15 45 20 37 7 -3 -5 0 -9 5 -9 6 0 11 5 11 10 0 6 4 10 10
10 5 0 7 -6 4 -14 -3 -7 1 -16 9 -19 11 -4 13 0 10 16 -5 22 -5 22 11 2 10
-11 15 -15 12 -9 -3 6 1 11 9 11 18 0 19 -9 3 -27 -11 -12 -10 -12 5 -1 14 11
20 11 35 0 13 -10 12 -8 -3 10 l-20 24 22 -11 c12 -7 23 -9 26 -4 2 4 3 2 1
-4 -1 -6 7 -16 18 -23 11 -7 17 -8 14 -3 -3 6 1 13 10 16 21 8 24 8 24 -5 0
-5 -4 -8 -8 -5 -5 3 -9 -1 -9 -9 0 -11 4 -12 13 -4 8 6 14 6 18 0 3 -5 1 -12
-4 -14 -6 -3 -5 -4 2 -3 7 2 12 9 11 15 -2 6 4 11 13 11 8 0 13 -4 10 -8 -2
-4 -1 -14 3 -21 6 -10 10 -9 14 4 5 10 3 14 -5 9 -7 -5 -8 -3 -3 5 5 9 10 10
18 2 18 -18 31 -12 16 7 -13 15 -12 16 4 3 13 -10 15 -17 6 -27 -16 -19 -4
-17 16 2 13 14 19 14 28 4 9 -10 9 -11 0 -6 -7 4 -13 2 -13 -3 0 -13 13 -14
24 -4 10 10 56 12 50 1 -7 -11 9 -10 24 2 9 7 9 7 2 -2 -5 -7 -10 -19 -10 -27
1 -13 4 -12 15 3 8 11 15 15 15 8 0 -6 6 -9 14 -6 8 3 17 1 20 -4 3 -5 -6 -8
-19 -6 -14 1 -25 -2 -25 -6 0 -10 46 -7 57 3 10 11 23 8 23 -4 0 -5 -4 -7 -10
-4 -6 3 -7 -1 -3 -10 3 -9 9 -13 12 -8 3 5 20 14 36 21 l30 13 -25 -20 c-21
-16 -23 -22 -12 -33 11 -11 12 -10 7 3 -4 10 0 16 9 16 8 0 12 -6 10 -12 -3
-6 2 -12 10 -12 8 0 13 3 11 7 -2 3 5 6 15 6 15 0 17 -3 7 -15 -9 -11 -9 -13
0 -8 6 4 14 1 16 -5 3 -8 6 -6 6 5 1 17 2 17 30 1 17 -10 28 -21 25 -25 -2 -4
1 -11 7 -15 8 -4 9 -3 5 4 -4 7 -2 12 3 12 6 0 11 -8 11 -17 0 -14 2 -15 9 -4
6 9 10 10 12 2 3 -7 11 -13 19 -15 32 -5 60 -18 56 -25 -3 -4 5 -13 17 -21 21
-12 21 -12 7 5 -14 17 -14 17 6 7 12 -6 24 -8 28 -5 6 6 8 -1 10 -37 1 -8 5
-13 11 -10 5 3 8 12 7 20 -2 10 2 8 11 -5 12 -15 13 -23 4 -35 -11 -13 -10
-13 7 0 24 19 43 21 56 5 7 -9 6 -16 -5 -25 -8 -7 -15 -17 -15 -23 0 -6 6 -3
13 8 10 12 16 15 21 6 5 -8 13 -8 27 -1 10 6 19 7 18 3 -4 -22 2 -34 14 -27 9
6 9 5 0 -8 -15 -17 -7 -29 13 -21 12 4 19 -12 16 -38 -1 -4 7 -6 16 -6 35 0
43 -3 36 -15 -5 -8 -2 -9 9 -5 20 8 23 -13 5 -32 -11 -11 -9 -11 9 0 12 7 19
17 16 23 -3 5 -1 6 5 2 8 -5 8 -15 2 -34 -10 -25 -9 -26 5 -8 13 17 15 18 15
3 0 -9 5 -17 11 -17 5 0 7 6 3 13 -5 8 -2 8 9 -2 9 -7 17 -19 17 -25 0 -6 -5
-4 -10 4 -5 8 -10 10 -10 4 0 -6 3 -14 8 -18 4 -4 7 -13 7 -19 0 -7 6 -13 13
-13 36 -4 37 -4 22 -14 -8 -5 -10 -10 -4 -10 5 0 16 6 23 13 10 10 12 9 9 -3
-2 -9 4 -14 14 -14 10 1 14 -4 11 -12 -5 -15 21 -47 31 -37 3 4 6 1 6 -5 0
-21 -19 -13 -42 18 -12 17 -27 30 -32 30 -6 0 -4 -5 4 -10 8 -5 11 -10 5 -10
-5 0 1 -7 13 -16 12 -8 19 -20 16 -26 -4 -6 -2 -8 4 -4 6 3 18 -1 27 -10 13
-14 14 -19 3 -25 -9 -6 -9 -9 -1 -9 6 0 15 5 18 10 3 6 12 10 18 9 9 0 9 -2 0
-6 -15 -6 -17 -29 -3 -38 6 -4 7 1 4 12 -5 15 -4 15 4 3 8 -10 7 -19 -1 -29
-10 -12 -9 -13 2 -6 11 6 13 4 8 -9 -4 -10 -3 -15 3 -11 14 9 12 -8 -2 -24
-10 -11 -10 -13 0 -7 11 7 17 -6 12 -29 -1 -5 2 -6 7 -2 11 12 11 31 -2 39 -5
4 0 6 12 5 17 -1 19 -4 11 -14 -10 -12 -4 -17 15 -14 5 1 6 -3 2 -9 -3 -6 -11
-8 -16 -5 -5 4 -9 1 -9 -4 0 -6 7 -11 16 -11 8 0 12 -5 9 -10 -4 -6 -12 -7
-18 -3 -7 3 -4 -3 7 -15 10 -12 23 -19 29 -15 6 3 7 1 3 -5 -4 -6 -14 -9 -24
-6 -15 5 -15 4 1 -6 9 -6 15 -15 12 -20 -3 -5 4 -14 16 -20 16 -9 20 -9 14 0
-5 9 -1 8 16 -1 13 -7 28 -12 33 -11 5 2 4 -4 -4 -12 -15 -19 -24 -21 -14 -4
5 7 3 8 -6 3 -9 -5 -11 -4 -6 3 5 8 2 10 -9 6 -14 -6 -14 -8 2 -19 10 -7 22
-11 27 -7 5 3 7 -2 3 -12 -4 -10 -3 -15 3 -11 6 3 10 1 10 -4 0 -6 -5 -11 -12
-11 -6 0 -8 -3 -4 -7 4 -5 14 1 22 11 17 24 19 13 3 -16 -10 -18 -9 -20 7 -14
14 5 16 4 8 -4 -15 -15 -6 -52 10 -43 6 4 5 -1 -3 -10 -14 -17 -26 -24 -17 -9
2 4 0 14 -5 22 -7 12 -8 11 -6 -5 6 -32 18 -55 29 -55 6 0 4 7 -3 17 -13 15
-12 15 9 2 12 -8 17 -16 12 -17 -7 -3 -6 -10 2 -20 10 -12 10 -14 1 -8 -8 4
-13 1 -13 -9 0 -10 5 -13 13 -9 6 4 9 4 5 -1 -4 -4 -2 -15 5 -24 10 -13 7 -13
-15 2 -21 13 -29 14 -34 4 -4 -6 -4 -9 1 -5 13 12 35 -12 28 -29 -5 -12 -3
-14 8 -8 11 7 11 5 -1 -10 -14 -17 -13 -18 2 -12 13 4 15 2 11 -11 -4 -9 -11
-20 -17 -24 -7 -5 -5 -8 4 -8 13 0 13 -1 0 -10 -12 -8 -12 -10 -1 -10 11 0 11
-3 0 -17 -8 -9 -9 -14 -3 -10 7 4 14 -4 17 -20 5 -27 5 -27 -10 -8 -16 20 -16
20 -8 0 16 -44 18 -58 7 -51 -7 4 -12 3 -12 -2 0 -5 10 -14 23 -21 14 -7 15
-10 3 -6 -13 4 -17 1 -12 -10 3 -9 0 -15 -9 -15 -8 0 -15 -6 -15 -12 0 -9 -3
-8 -9 2 -6 8 -7 18 -4 24 3 5 1 6 -5 2 -6 -4 -8 -14 -5 -23 5 -12 3 -14 -8 -9
-8 4 -5 0 6 -9 12 -11 14 -15 5 -12 -19 6 -50 -10 -50 -25 0 -9 3 -9 12 0 7 7
16 12 22 12 5 0 1 -6 -9 -14 -11 -8 -23 -12 -27 -10 -4 2 -9 0 -12 -5 -4 -5
-1 -13 5 -17 8 -5 9 -3 4 6 -5 9 -4 11 4 6 6 -4 9 -11 6 -16 -3 -5 -1 -11 5
-15 6 -4 8 -11 4 -16 -3 -5 -9 -7 -14 -4 -5 3 -12 0 -16 -6 -4 -7 -3 -9 2 -6
6 3 15 -3 22 -14 10 -15 10 -19 0 -19 -9 0 -8 -3 2 -10 8 -5 20 -10 25 -10 6
0 3 5 -5 10 -8 5 -11 10 -6 10 5 0 2 8 -5 18 -7 9 -9 14 -5 10 5 -4 15 -3 22
3 8 7 14 7 19 -1 4 -6 3 -10 -2 -9 -21 4 -23 -3 -7 -31 10 -16 27 -30 38 -32
12 -2 20 -11 21 -25 1 -18 -1 -20 -12 -11 -12 10 -12 7 -2 -16 10 -20 10 -29
1 -38 -22 -22 -12 -32 10 -12 18 15 20 16 9 2 -7 -10 -11 -24 -8 -32 4 -9 1
-13 -6 -10 -7 2 -13 -4 -14 -16 -1 -11 3 -20 8 -20 6 0 7 5 3 12 -4 7 -3 8 5
4 9 -6 9 -11 -1 -23 -17 -21 -19 -46 -3 -40 10 4 11 -3 5 -30 -5 -19 -11 -38
-15 -41 -4 -4 -4 4 0 17 6 21 5 22 -8 10 -8 -8 -12 -18 -9 -23 3 -5 -2 -7 -11
-3 -10 3 -17 2 -17 -4 0 -6 -5 -7 -10 -4 -8 5 -7 12 2 23 12 15 11 16 -5 3
-19 -15 -46 -57 -30 -48 5 4 10 0 10 -8 0 -11 -5 -12 -20 -3 -14 7 -18 7 -13
-1 4 -6 -2 -15 -15 -19 l-23 -9 22 -5 c12 -4 20 -2 17 2 -3 5 0 12 7 16 7 4
10 4 6 -1 -4 -4 -3 -14 3 -21 8 -10 6 -12 -11 -9 -16 3 -20 0 -16 -10 3 -8 -2
-18 -11 -23 -14 -8 -13 -10 1 -15 11 -5 15 -3 10 5 -5 7 -3 8 6 3 8 -5 11 -4
6 3 -3 6 -1 14 6 18 7 4 10 4 6 -1 -4 -4 -2 -15 5 -23 8 -11 8 -14 0 -9 -17
10 -28 -13 -12 -25 11 -8 11 -9 -2 -5 -10 3 -24 -5 -37 -22 -15 -20 -16 -28
-7 -28 8 0 11 5 8 10 -4 6 -1 7 7 2 10 -6 10 -10 -2 -19 -17 -13 -12 -40 5
-29 8 5 8 2 0 -9 -7 -8 -9 -19 -5 -23 4 -5 1 -5 -6 -1 -6 4 -19 1 -27 -7 -13
-13 -13 -16 1 -21 8 -3 12 -2 9 4 -3 6 -1 10 5 10 7 0 10 -6 7 -12 -2 -7 -12
-12 -22 -10 -14 3 -15 1 -4 -11 8 -8 18 -12 23 -9 5 3 6 0 2 -6 -5 -8 -13 -9
-25 -2 -22 11 -32 4 -24 -17 5 -12 7 -12 15 -1 6 9 7 6 3 -9 -4 -15 -2 -23 6
-23 7 0 4 -7 -7 -15 -16 -13 -17 -16 -4 -25 12 -9 11 -10 -7 -5 -18 5 -20 3
-16 -16 5 -17 3 -21 -8 -17 -10 4 -14 -1 -14 -16 1 -12 4 -26 7 -32 7 -11 -11
-39 -32 -47 -11 -4 -10 -6 4 -6 19 -1 19 -1 1 -14 -12 -10 -14 -16 -7 -21 7
-4 12 -13 12 -19 0 -7 -4 -6 -10 3 -8 13 -11 13 -22 1 -11 -11 -11 -13 1 -6 9
5 12 3 9 -6 -3 -8 -14 -13 -24 -12 -10 1 -13 0 -6 -3 19 -9 15 -37 -4 -30 -14
5 -15 4 -4 -9 7 -8 17 -12 23 -8 6 4 7 1 3 -6 -5 -7 -15 -10 -23 -7 -8 3 -11
1 -8 -4 3 -6 3 -16 -2 -22 -4 -7 -9 -24 -10 -38 -1 -14 0 -19 3 -12 3 6 10 12
16 12 7 0 7 -5 -1 -13 -6 -8 -7 -18 -3 -23 4 -5 -4 0 -18 11 -14 11 -22 16
-18 11 4 -5 2 -16 -4 -24 -10 -11 -9 -16 5 -23 14 -8 15 -13 4 -29 -6 -11 -16
-20 -21 -20 -5 0 -1 9 9 20 10 11 14 20 9 20 -5 0 -15 -9 -22 -20 -10 -17 -10
-21 3 -26 8 -3 12 -10 9 -15 -3 -5 -10 -7 -15 -4 -5 3 -6 -1 -3 -9 3 -9 11
-13 17 -9 6 3 7 1 3 -5 -9 -16 -11 -15 -32 5 -16 16 -17 16 -12 1 4 -9 4 -19
0 -21 -4 -2 -2 -2 5 -1 17 4 3 -27 -22 -49 -11 -10 -14 -16 -7 -12 14 7 17
-11 2 -20 -6 -4 -7 -13 -2 -23 15 -31 8 -47 -20 -47 -14 0 -30 -4 -34 -8 -5
-4 -1 -5 9 -1 10 3 17 1 17 -6 0 -6 5 -8 12 -4 7 4 8 3 4 -4 -4 -7 -15 -12
-24 -12 -15 0 -15 -2 -2 -10 13 -9 13 -10 0 -11 -8 -1 -18 -1 -21 -1 -3 1 -5
-11 -3 -26 1 -15 3 -27 4 -27 1 0 3 -8 5 -18 3 -18 -32 -50 -47 -41 -4 3 -5
-2 -1 -11 4 -12 8 -13 13 -5 5 9 9 9 14 1 4 -6 2 -11 -3 -11 -6 0 -11 -7 -11
-15 0 -8 -5 -15 -11 -15 -5 0 -8 4 -4 9 3 5 1 12 -4 15 -4 3 -8 -4 -7 -17 1
-13 -4 -21 -12 -19 -8 1 -11 -2 -7 -8 3 -5 1 -10 -6 -10 -7 0 -4 -7 7 -15 10
-8 15 -15 10 -15 -5 0 -2 -8 5 -17 8 -10 9 -14 2 -10 -17 10 -28 -13 -12 -24
9 -7 4 -8 -16 -4 -16 3 -24 2 -17 -1 17 -8 15 -27 -2 -21 -18 7 -14 -21 5 -34
11 -8 10 -9 -6 -7 -11 2 -23 7 -26 11 -3 5 -9 1 -12 -8 -4 -9 -3 -13 3 -10 14
9 12 -9 -2 -23 -7 -7 -8 -12 -4 -12 5 0 3 -7 -4 -15 -7 -8 -9 -15 -5 -15 5 0
0 -9 -10 -20 -19 -21 -30 -54 -15 -45 4 3 10 -2 13 -10 4 -9 1 -12 -9 -8 -20
7 -18 -7 4 -23 16 -13 16 -14 -2 -7 -12 4 -17 3 -13 -4 4 -6 0 -16 -8 -23 -7
-6 -11 -19 -8 -28 3 -9 3 -14 -1 -11 -12 11 -16 50 -4 43 7 -5 8 -2 3 6 -5 9
-4 11 3 6 8 -5 10 -2 6 9 -6 14 -8 14 -19 -2 -7 -10 -11 -21 -9 -25 2 -4 0
-10 -6 -13 -8 -5 -6 -15 5 -31 18 -27 14 -31 -9 -8 -9 8 -16 11 -16 5 0 -5 4
-13 10 -16 16 -10 -11 -44 -32 -40 -10 2 -16 0 -13 -6 4 -5 10 -7 15 -4 4 3
13 -2 20 -10 11 -13 10 -14 -4 -9 -9 4 -16 3 -14 -2 5 -19 -14 -54 -30 -54
-15 0 -15 -2 -2 -10 13 -8 13 -11 1 -22 -8 -7 -11 -8 -8 -2 3 6 0 11 -8 11
-11 0 -12 -5 -3 -21 10 -19 9 -19 -4 -8 -13 10 -18 10 -24 1 -4 -8 -3 -9 4 -5
7 4 12 1 12 -9 0 -10 -5 -13 -12 -9 -8 5 -7 0 2 -11 14 -17 13 -18 -2 -12 -10
3 -18 2 -18 -4 0 -6 -4 -8 -9 -4 -5 3 -13 0 -17 -6 -4 -8 -3 -9 4 -5 7 4 12 2
12 -3 0 -6 -6 -11 -14 -11 -8 0 -17 -8 -21 -17 -5 -15 -4 -16 6 -5 17 16 35
16 21 0 -6 -7 -10 -25 -9 -40 2 -23 6 -27 22 -21 17 5 18 4 6 -10 -7 -9 -18
-14 -24 -10 -6 3 -7 1 -3 -6 6 -9 11 -9 22 0 11 9 14 8 14 -2 0 -11 2 -11 10
1 8 13 10 12 10 -2 0 -10 -5 -18 -10 -18 -6 0 -5 -6 2 -14 7 -8 15 -12 17 -10
2 2 13 -4 23 -13 18 -16 18 -16 12 1 -7 18 -6 18 19 1 15 -9 27 -13 27 -9 0 5
6 2 13 -7 13 -17 52 -35 42 -20 -3 5 -1 13 5 16 6 4 10 3 9 -2 -1 -4 -1 -15 1
-23 1 -11 4 -9 10 5 7 16 9 17 9 3 1 -9 6 -20 13 -24 7 -4 8 -3 4 4 -4 7 -3
12 3 12 6 0 8 8 5 18 -3 9 2 6 10 -8 8 -14 15 -19 16 -12 0 6 7 12 15 12 8 0
15 5 15 12 0 6 7 3 15 -8 8 -10 15 -14 15 -7 0 8 7 10 17 6 15 -6 16 -5 3 9
-8 9 -19 13 -25 10 -6 -3 -6 -1 -2 4 13 14 31 11 44 -6 10 -12 11 -10 8 15 -5
30 -5 30 8 6 12 -20 15 -21 21 -6 3 9 4 21 1 25 -3 5 0 12 6 16 8 5 9 3 4 -6
-6 -9 -2 -10 15 -5 15 5 20 3 16 -3 -3 -6 -2 -13 3 -16 5 -4 8 2 6 11 -2 10
-4 22 -4 26 -1 5 -6 5 -13 1 -7 -4 -8 -3 -4 4 9 16 46 15 46 0 0 -6 3 -9 6 -6
3 4 0 17 -7 30 -11 21 -11 22 4 9 15 -12 17 -11 17 8 0 11 4 21 10 21 5 0 6
-8 3 -17 -6 -15 -5 -16 9 -3 10 9 12 17 6 21 -13 9 -1 29 17 29 8 0 20 9 28
20 8 11 17 17 22 12 5 -4 5 -2 1 5 -3 6 1 16 11 21 15 9 15 12 3 27 -14 16
-13 17 10 11 14 -4 20 -4 13 1 -15 10 -10 49 6 46 6 -2 11 4 11 12 0 8 4 15
10 15 5 0 7 8 4 18 -4 10 -2 13 3 7 9 -11 33 -18 33 -9 0 3 -10 14 -22 23 -15
13 -18 20 -9 25 7 4 10 2 9 -4 -2 -7 5 -14 15 -15 15 -3 16 -1 5 12 -11 14
-10 15 12 9 14 -4 20 -4 14 1 -6 4 -10 16 -8 26 1 9 -2 17 -7 17 -6 0 -7 5 -4
10 4 6 13 3 23 -8 9 -10 16 -16 15 -13 -2 2 5 10 15 17 16 12 16 12 -2 11 -13
-1 -19 5 -21 19 -2 22 23 28 38 9 5 -6 7 -4 4 5 -2 8 -9 14 -14 13 -5 -1 -10
4 -10 11 0 7 8 13 18 12 10 -1 18 4 17 9 -2 6 -9 9 -18 7 -13 -2 -13 -2 0 7
12 9 13 11 1 11 -8 0 -11 3 -8 6 4 4 19 -1 34 -11 24 -16 26 -16 14 -2 -15 19
-7 52 10 41 8 -4 9 -3 5 5 -4 6 -11 9 -16 6 -5 -3 -12 0 -16 6 -4 8 -3 9 4 5
13 -8 31 23 25 42 -3 6 -10 9 -16 5 -7 -3 -8 -2 -4 3 5 5 13 10 18 10 22 3 23
5 9 14 -13 8 -12 10 3 10 20 0 22 -11 5 -28 -9 -9 -9 -12 1 -12 7 0 9 -5 5
-12 -4 -7 -3 -8 5 -4 6 4 9 11 6 16 -3 5 -1 19 6 31 6 12 7 19 2 16 -5 -3 -15
4 -22 16 -11 18 -11 20 0 10 18 -18 30 -16 22 4 -5 13 -2 15 11 10 9 -4 15 -3
11 2 -3 5 1 12 7 14 10 4 10 6 0 6 -7 1 -10 6 -7 11 5 8 12 7 23 -2 14 -11 14
-9 0 8 -21 24 -23 35 -7 31 6 -1 14 4 16 11 3 6 0 12 -7 12 -6 0 -8 -4 -5 -10
3 -6 -1 -7 -10 -3 -13 5 -14 7 -3 14 16 10 18 29 4 49 -6 9 -1 7 11 -4 13 -10
20 -24 16 -30 -3 -6 -2 -7 2 -3 12 10 15 38 4 31 -9 -5 -14 12 -9 31 2 6 2 19
2 30 -1 16 1 17 8 5 5 -8 7 -24 4 -34 -5 -16 -4 -17 9 -5 10 9 12 18 5 26 -6
8 -3 15 9 23 15 9 15 11 1 6 -9 -2 -19 1 -21 9 -8 19 4 27 20 14 19 -16 17 6
-3 25 -18 19 -4 22 15 4 8 -8 6 2 -4 22 -16 31 -16 33 -2 21 13 -10 17 -11 17
-1 0 7 -8 19 -17 27 -13 10 -9 9 15 -2 18 -9 30 -20 27 -25 -3 -5 -1 -11 4
-14 10 -7 9 13 -1 30 -10 15 2 55 15 47 6 -4 7 -1 2 6 -5 9 -10 10 -18 2 -6
-6 -16 -11 -21 -11 -6 0 -5 4 1 8 7 5 14 20 15 34 2 19 7 24 23 21 11 -2 14
-1 7 3 -7 3 -17 14 -22 24 -8 15 -6 21 11 30 19 11 20 10 9 -10 -6 -12 -9 -24
-6 -27 3 -3 10 6 15 20 5 14 15 27 22 29 9 3 7 7 -5 11 -9 4 -15 3 -12 -2 4
-5 -4 -7 -16 -3 -21 5 -21 6 -2 13 21 7 52 39 39 39 -4 0 -2 6 4 14 9 11 9 16
0 22 -8 5 -10 3 -4 -7 5 -8 4 -10 0 -6 -13 11 -15 38 -2 30 6 -4 8 0 4 10 -3
9 -1 19 5 23 6 4 8 3 4 -4 -3 -6 -2 -14 4 -17 6 -4 10 -3 9 2 -1 4 0 11 1 16
1 4 3 13 4 20 1 6 8 11 16 9 12 -3 13 -1 3 9 -15 15 -17 33 -4 25 11 -7 8 21
-4 31 -4 4 -5 3 -1 -4 9 -16 -13 -28 -27 -14 -9 9 -7 10 7 5 13 -5 17 -4 13 3
-4 6 0 19 9 27 8 9 12 16 7 16 -5 0 -9 10 -10 21 -2 21 -1 21 13 3 14 -18 14
-18 7 1 -3 11 -11 23 -17 27 -7 5 -4 8 7 8 9 0 17 5 17 11 0 5 -4 8 -9 5 -5
-4 -6 9 -1 29 4 19 5 36 3 39 -3 2 6 2 19 -1 22 -6 22 -6 5 11 -21 21 -15 35
7 17 11 -9 16 -9 22 0 4 7 3 9 -3 6 -5 -3 -17 3 -26 14 -16 18 -16 19 1 20 9
1 21 1 25 0 5 -1 6 3 2 8 -3 6 -12 8 -20 5 -19 -8 -11 37 10 52 8 6 11 14 5
20 -17 17 -14 94 4 123 6 10 5 12 -2 7 -7 -4 -12 -2 -12 4 0 6 -5 8 -12 4 -7
-5 -8 -3 -3 6 6 10 4 12 -8 7 -24 -9 -21 0 4 14 17 9 20 8 14 -2 -5 -8 -4 -10
3 -5 19 12 14 29 -8 23 -26 -7 -42 15 -45 60 -4 53 -4 55 -13 49 -5 -3 -16 8
-26 25 -9 16 -13 29 -7 29 6 0 8 6 6 13 -3 6 -6 37 -8 67 -2 40 1 59 12 68 9
8 10 11 4 7 -7 -3 -13 -1 -13 5 0 6 -5 8 -12 4 -7 -4 -8 -3 -4 5 4 6 13 8 19
4 8 -4 7 -1 -1 9 -11 14 -10 18 5 27 11 6 13 11 5 11 -9 0 -12 10 -8 30 3 23
0 30 -12 31 -10 1 -7 4 8 9 14 4 19 8 13 9 -7 1 -13 8 -13 17 0 9 -5 12 -12 8
-7 -4 -5 1 4 12 9 10 16 21 15 24 -1 3 6 16 16 30 9 13 17 19 17 12 0 -8 5
-10 12 -6 7 4 8 3 4 -5 -4 -6 -12 -8 -18 -5 -7 5 -8 2 -3 -6 6 -9 4 -11 -6 -5
-8 5 -10 4 -6 0 12 -14 37 -15 34 -2 -1 7 4 11 11 9 10 -2 10 2 2 19 -10 17
-8 21 9 26 16 4 19 9 11 18 -8 10 -8 15 1 21 8 5 10 3 4 -7 -5 -8 -4 -11 1 -6
10 10 13 67 2 61 -3 -2 -13 -1 -22 2 -12 5 -13 10 -5 25 7 13 6 19 -1 19 -6 0
-8 5 -4 12 5 7 3 8 -5 4 -7 -5 -21 0 -33 11 -12 10 -18 12 -14 6 4 -7 3 -13
-2 -13 -6 0 -12 7 -16 15 -3 8 -1 15 3 15 5 0 12 7 15 16 5 14 4 15 -9 4 -14
-11 -14 -10 -5 14 5 15 8 31 5 36 -3 5 -1 11 5 15 6 4 8 11 4 16 -3 5 -10 7
-15 3 -5 -3 -6 -10 -3 -16 5 -7 2 -8 -5 -3 -9 5 -9 11 -3 17 6 6 8 17 5 24 -3
8 0 14 7 14 6 0 8 -5 4 -12 -4 -7 -3 -8 5 -4 14 9 5 26 -15 26 -8 0 -12 5 -9
10 4 6 11 8 16 5 5 -3 6 1 3 9 -3 9 -9 14 -13 12 -4 -3 -7 4 -7 14 0 13 4 16
12 9 8 -7 10 -2 6 17 -4 21 -2 25 9 19 12 -8 12 -6 0 8 -14 17 -26 24 -17 9 2
-4 0 -14 -5 -22 -7 -11 -8 -7 -5 12 3 15 0 30 -5 34 -5 3 -7 14 -4 25 4 11 2
19 -5 19 -7 0 -6 5 2 14 7 8 16 12 20 10 4 -2 9 0 13 5 6 11 -27 7 -48 -5 -9
-6 -8 -3 1 8 10 12 11 22 3 36 -6 11 -7 22 -4 26 3 3 2 6 -3 6 -6 0 -10 11
-10 25 0 25 8 25 13 0 2 -8 4 -22 6 -30 2 -9 6 -15 10 -15 4 0 13 0 20 0 6 0
4 5 -6 11 -9 6 -15 14 -12 20 4 5 2 9 -3 9 -11 0 -12 32 -1 46 5 7 3 11 -6 11
-8 0 -12 -4 -9 -9 3 -4 0 -8 -5 -8 -15 0 -14 13 1 29 11 11 10 13 -4 8 -13 -4
-15 -2 -11 10 4 11 2 14 -5 9 -8 -5 -10 -2 -6 9 6 14 8 14 19 -1 11 -15 12
-15 12 0 0 9 -4 16 -9 16 -4 0 -7 5 -6 11 2 6 -4 14 -12 16 -13 4 -13 3 0 -7
12 -9 12 -11 1 -8 -8 2 -15 12 -17 23 -1 10 -9 22 -16 26 -9 6 -9 9 -1 9 7 0
16 -7 21 -16 8 -15 10 -15 15 0 4 10 3 15 -1 13 -21 -13 -34 42 -18 74 4 8 1
5 -8 -5 -8 -10 -13 -23 -9 -29 3 -6 1 -7 -5 -3 -12 7 -7 30 12 56 9 13 9 13
-6 2 -15 -12 -17 -11 -15 7 1 15 6 20 17 16 11 -5 12 -3 3 6 -12 12 -37 3 -28
-11 3 -5 1 -11 -4 -15 -6 -3 -8 6 -5 21 3 17 1 23 -7 19 -8 -5 -8 -2 -1 12 7
12 7 25 1 36 -6 9 -7 17 -3 17 4 0 -1 9 -11 20 -10 11 -15 20 -11 20 4 0 1 7
-8 15 -8 8 -18 15 -22 15 -3 0 -1 -7 6 -15 9 -10 9 -15 1 -15 -11 0 -16 15
-11 35 1 6 3 17 3 25 0 8 5 18 11 23 6 4 0 6 -14 3 -14 -2 -34 2 -45 10 -11 9
-14 14 -6 14 10 0 11 3 2 13 -8 10 -7 17 2 27 10 10 9 11 -2 5 -11 -6 -13 -3
-9 13 3 12 3 21 -1 20 -25 -3 -37 5 -39 27 -1 13 3 27 8 30 6 3 10 11 10 18 0
6 -6 2 -14 -9 -8 -10 -18 -15 -22 -11 -5 4 -2 12 6 17 13 8 12 10 -2 11 -10 1
-23 2 -30 3 -14 1 -23 56 -9 56 6 0 0 10 -12 23 -19 20 -24 21 -38 10 -13 -11
-16 -11 -16 2 0 8 4 12 9 9 4 -3 8 2 8 11 0 9 -4 13 -10 10 -5 -3 -10 1 -10
10 0 10 5 13 12 9 7 -4 8 -3 4 5 -6 9 -11 9 -21 1 -9 -8 -15 -8 -20 0 -3 6
-11 7 -17 4 -7 -4 -8 -2 -4 5 6 9 11 9 22 0 12 -10 13 -9 8 5 -3 9 -10 16 -16
16 -5 0 -6 6 -2 13 5 7 0 6 -11 -3 -15 -12 -17 -12 -10 -1 6 11 4 13 -10 7
-15 -5 -16 -4 -5 9 10 12 10 15 -3 15 -9 0 -19 5 -23 12 -5 7 -2 9 9 5 11 -4
14 -2 10 9 -3 9 -12 12 -25 8 -17 -5 -18 -3 -9 14 10 18 8 20 -14 17 -21 -2
-24 1 -20 16 8 24 -3 24 -22 2 -8 -10 -12 -12 -8 -5 9 17 -14 44 -29 35 -6 -3
-8 -3 -4 2 4 4 -4 23 -17 43 -13 19 -22 39 -20 42 3 4 -9 6 -25 5 -17 -1 -30
1 -30 6 0 5 7 9 15 9 8 0 15 4 15 10 0 6 -9 6 -25 0 -18 -7 -28 -5 -40 6 -13
14 -13 34 1 34 3 0 3 -4 -1 -9 -3 -5 -1 -12 4 -15 5 -4 8 2 7 11 -2 13 -12 18
-39 18 -19 0 -33 3 -31 7 3 4 -5 12 -16 18 -11 6 -18 16 -14 22 4 6 -2 8 -17
4 -13 -3 -18 -3 -11 0 6 3 12 10 12 15 0 6 -4 7 -10 4 -5 -3 -10 -1 -10 6 0 8
-4 8 -15 -1 -9 -7 -18 -10 -22 -6 -3 3 -2 6 4 6 6 0 13 12 16 26 3 18 1 22 -6
15 -15 -15 -30 -14 -21 2 6 8 3 8 -9 -1 -14 -12 -16 -11 -12 7 2 12 0 21 -6
21 -5 0 -9 -7 -9 -17 0 -16 -14 -10 -16 8 -1 5 -2 13 -3 17 0 4 -10 8 -21 9
-13 1 -18 -2 -13 -10 4 -8 1 -8 -9 1 -11 9 -18 9 -21 2 -3 -6 -4 -5 -3 2 2 7
9 12 15 11 6 -2 11 2 11 7 0 13 -23 13 -37 -1 -8 -8 -13 -7 -18 2 -5 8 -4 10
3 5 7 -4 12 -1 12 8 0 11 -8 15 -30 12 -16 -2 -27 1 -24 6 3 4 -9 14 -27 22
-32 13 -26 31 8 20 17 -5 17 -5 0 6 -9 6 -21 9 -26 5 -5 -3 -12 -1 -16 5 -4 6
-10 8 -15 5 -5 -3 -11 -1 -15 5 -3 5 -12 10 -18 10 -7 0 -3 -7 7 -15 10 -8 23
-12 27 -9 5 3 9 0 9 -5 0 -14 -3 -14 -35 1 -22 10 -29 20 -26 40 1 8 -26 4
-36 -6 -4 -4 -3 -6 4 -4 10 3 13 -1 13 -18 0 -4 -7 -1 -15 6 -11 9 -12 17 -3
34 11 21 11 21 -11 2 -11 -11 -24 -16 -28 -13 -3 4 -1 7 5 7 7 0 12 4 12 10 0
12 -22 9 -33 -5 -5 -6 -6 1 -3 15 4 21 3 23 -7 9 -10 -13 -15 -14 -24 -4 -8 8
-8 16 -1 23 6 6 6 12 -3 17 -7 5 -10 4 -5 -3 3 -6 2 -14 -4 -17 -7 -5 -8 -11
-1 -19 7 -8 4 -12 -12 -13 -12 -1 -17 1 -12 5 6 4 11 15 11 25 2 17 1 17 -17
1 -11 -9 -22 -14 -26 -11 -3 4 -1 7 5 7 7 0 12 7 12 16 0 14 -1 14 -16 0 -20
-21 -30 -21 -14 0 11 12 11 15 -1 12 -8 -2 -13 3 -11 12 3 12 1 12 -9 3 -9 -9
-17 -9 -33 2 -21 13 -33 13 -71 0 -19 -6 -19 -6 -2 8 12 10 14 17 8 22 -6 3
-11 1 -11 -4 0 -6 -7 -11 -16 -11 -8 0 -12 -5 -9 -11 4 -6 -2 -5 -13 2 -12 7
-18 18 -14 24 3 5 -3 3 -13 -5 -10 -8 -16 -10 -12 -3 10 15 -13 22 -40 12 -13
-5 -23 -5 -23 -1 0 4 -5 0 -10 -8 -8 -12 -10 -10 -8 9 2 13 -3 26 -9 28 -7 3
-13 0 -13 -7 0 -6 5 -8 10 -5 6 3 10 4 10 1 0 -3 -9 -10 -19 -16 -17 -8 -19
-7 -17 14 2 17 -1 23 -13 21 -9 -2 -17 -4 -18 -5 -4 -3 -20 -7 -34 -9 -5 0 -7
-5 -4 -11 3 -5 4 -10 0 -10 -3 0 -14 15 -25 33 -11 17 -20 27 -20 21 0 -7 -16
-14 -35 -16 -32 -4 -46 4 -27 15 4 2 0 2 -8 -1 -8 -3 -23 -4 -32 -4 -10 0 -20
-4 -23 -9 -4 -5 -11 -7 -16 -4 -5 4 -9 1 -9 -6 0 -7 -6 -5 -13 6 -8 10 -19 15
-25 11 -7 -4 -12 -3 -12 3 0 5 -9 9 -19 8 -11 0 -17 -5 -15 -9 3 -5 10 -5 16
-2 7 4 8 2 4 -4 -5 -8 -13 -9 -25 -2 -10 5 -21 6 -25 3 -3 -3 -6 0 -7 8 -1 8
-5 3 -9 -11 l-8 -25 -1 24 c-1 20 -3 22 -17 10 -16 -14 -86 -20 -78 -7 3 4
-12 4 -32 1 -22 -4 -35 -2 -31 3 3 5 -3 10 -13 10 -18 0 -18 -2 -3 -18 20 -22
8 -24 -14 -3 -8 8 -19 13 -24 10 -5 -4 -9 -1 -9 6 0 7 -3 9 -7 6 -3 -4 2 -17
13 -29 10 -13 12 -17 4 -10 -17 15 -34 16 -25 1 4 -6 -2 -5 -13 2 -12 7 -18
17 -15 22 3 5 10 3 15 -4 8 -12 9 -12 6 0 -2 8 -12 15 -21 17 -9 1 -15 -2 -12
-6 11 -18 -17 -21 -31 -4 -11 15 -13 15 -8 3z m606 -41 c-8 -8 -9 -4 -5 13 4
13 8 18 11 10 2 -7 -1 -18 -6 -23z m-549 2 c10 -12 9 -12 -5 -2 -13 10 -17 10
-22 0 -5 -10 -7 -10 -12 1 -5 11 -8 11 -15 0 -6 -10 -9 -10 -9 -2 0 7 -7 10
-17 6 -10 -4 -14 -2 -10 4 9 15 75 9 90 -7z m644 5 c0 -8 -4 -15 -9 -15 -10 0
-11 14 -1 23 9 10 10 9 10 -8z m294 -66 c4 -6 12 -8 19 -4 9 5 11 4 6 -3 -10
-16 -22 -15 -40 3 -19 20 -27 20 -37 3 -5 -7 -9 -8 -9 -2 0 6 3 13 6 17 9 8
47 -1 55 -14z m-1363 -44 c-3 -3 -9 2 -12 12 -6 14 -5 15 5 6 7 -7 10 -15 7
-18z m1882 -189 c0 -3 -4 -8 -10 -11 -5 -3 -10 -1 -10 4 0 6 5 11 10 11 6 0
10 -2 10 -4z m305 -226 c3 -5 -1 -10 -10 -10 -9 0 -13 5 -10 10 3 6 8 10 10
10 2 0 7 -4 10 -10z m-1492 -20 c-3 -11 -10 -23 -16 -27 -5 -3 -8 -2 -5 3 3 5
8 17 11 27 9 24 16 22 10 -3z m-83 6 c0 -2 -8 -10 -17 -17 -16 -13 -17 -12 -4
4 13 16 21 21 21 13z m-92 -31 c-3 -3 -9 2 -12 12 -6 14 -5 15 5 6 7 -7 10
-15 7 -18z m422 7 c0 -4 -10 -9 -22 -9 -18 -2 -20 0 -8 7 18 12 30 13 30 2z
m261 -35 c-10 -9 -11 -8 -5 6 3 10 9 15 12 12 3 -3 0 -11 -7 -18z m-991 -12
c-12 -14 -48 -13 -40 1 3 5 11 7 19 6 7 -2 10 1 6 7 -4 7 0 8 10 5 11 -5 13
-10 5 -19z m-130 -15 c0 -5 -5 -10 -11 -10 -5 0 -7 5 -4 10 3 6 8 10 11 10 2
0 4 -4 4 -10z m-156 -38 c3 -5 -1 -9 -9 -9 -8 0 -15 4 -15 9 0 4 4 8 9 8 6 0
12 -4 15 -8z m-92 -34 c-7 -7 -12 -8 -12 -4 0 5 -12 1 -27 -8 l-28 -17 24 20
c12 12 28 18 34 14 7 -4 8 0 3 13 -6 15 -5 17 5 7 10 -10 10 -16 1 -25z m1988
-82 c0 -3 -4 -8 -10 -11 -5 -3 -10 -1 -10 4 0 6 5 11 10 11 6 0 10 -2 10 -4z
m-2337 -90 c-3 -4 -9 -2 -14 5 -13 22 -11 31 5 17 8 -7 12 -17 9 -22z m3011
-5 c-4 -3 -9 0 -11 7 -3 6 -10 9 -15 6 -7 -4 -8 -2 -4 5 6 9 11 9 22 0 8 -6
12 -15 8 -18z m-3054 -15 c0 -2 -7 -6 -15 -10 -8 -3 -15 -1 -15 4 0 6 7 10 15
10 8 0 15 -2 15 -4z m-56 -22 c3 -8 2 -12 -4 -9 -6 3 -10 10 -10 16 0 14 7 11
14 -7z m-102 -86 c-7 -7 -12 -8 -12 -2 0 14 12 26 19 19 2 -3 -1 -11 -7 -17z
m2861 -5 c-5 -12 -3 -14 7 -8 9 5 11 4 6 -4 -10 -16 -25 -4 -23 19 1 10 5 17
9 14 4 -3 4 -12 1 -21z m-3348 -102 c-3 -6 -11 -11 -17 -11 -6 0 -6 6 2 15 14
17 26 13 15 -4z m3519 -53 c6 -4 1 -6 -10 -6 -16 2 -20 7 -16 22 4 15 7 17 10
6 3 -8 10 -18 16 -22z m341 13 c3 -5 2 -12 -3 -15 -5 -3 -9 1 -9 9 0 17 3 19
12 6z m-3621 -87 c3 -8 2 -12 -4 -9 -6 3 -10 1 -10 -4 0 -6 -5 -11 -10 -11 -6
0 -5 8 2 20 15 24 14 24 22 4z m3665 2 c9 -11 9 -16 0 -22 -8 -4 -9 -3 -5 4 4
7 2 12 -3 12 -6 0 -11 5 -11 10 0 14 5 13 19 -4z m15 -57 c-3 -5 -10 -7 -15
-3 -5 3 -7 10 -3 15 3 5 10 7 15 3 5 -3 7 -10 3 -15z m-3805 -185 c-6 -8 -17
-14 -23 -14 -6 0 -4 5 4 10 8 5 11 10 7 10 -5 0 -5 5 -2 10 4 6 11 8 16 4 6
-4 6 -11 -2 -20z m-21 -36 c-2 -6 -10 -13 -16 -14 -7 -1 -8 0 -2 3 5 2 8 9 4
14 -3 5 0 9 6 9 7 0 10 -5 8 -12z m3643 -31 c-10 -9 -11 -8 -5 6 3 10 9 15 12
12 3 -3 0 -11 -7 -18z m-3737 -173 c3 -8 2 -12 -4 -9 -6 3 -10 10 -10 16 0 14
7 11 14 -7z m-194 -88 c0 -3 -4 -8 -10 -11 -5 -3 -10 -1 -10 4 0 6 5 11 10 11
6 0 10 -2 10 -4z m-20 -64 c0 -13 -12 -22 -22 -16 -10 6 -1 24 13 24 5 0 9 -4
9 -8z m-5 -100 c-3 -3 -11 0 -18 7 -9 10 -8 11 6 5 10 -3 15 -9 12 -12z m4320
-162 c3 -5 1 -10 -4 -10 -6 0 -11 5 -11 10 0 6 2 10 4 10 3 0 8 -4 11 -10z
m-4062 -24 c6 -15 -17 -16 -30 -1 -4 4 -2 5 5 1 6 -4 12 -2 12 3 0 15 7 14 13
-3z m4078 -9 c-10 -9 -11 -8 -5 6 3 10 9 15 12 12 3 -3 0 -11 -7 -18z m-4394
-122 c0 -8 -4 -12 -9 -9 -5 3 -6 10 -3 15 9 13 12 11 12 -6z m287 -36 c-3 -5
-10 -7 -15 -3 -5 3 -7 10 -3 15 3 5 10 7 15 3 5 -3 7 -10 3 -15z m3834 -4 c-3
-3 -9 2 -12 12 -6 14 -5 15 5 6 7 -7 10 -15 7 -18z m-3873 -65 c3 -5 1 -10 -4
-10 -6 0 -11 5 -11 10 0 6 2 10 4 10 3 0 8 -4 11 -10z m103 -268 c9 -14 10
-22 3 -22 -6 0 -11 7 -11 16 0 8 -4 13 -9 9 -5 -3 -12 -1 -16 5 -4 6 -10 8
-15 5 -5 -3 -11 -1 -14 3 -12 20 48 4 62 -16z m29 -107 c0 -8 -4 -12 -9 -9 -4
3 -8 9 -8 15 0 5 4 9 8 9 5 0 9 -7 9 -15z m-19 -30 c-3 -3 -9 2 -12 12 -6 14
-5 15 5 6 7 -7 10 -15 7 -18z m3657 -35 c3 -5 1 -10 -4 -10 -6 0 -11 5 -11 10
0 6 2 10 4 10 3 0 8 -4 11 -10z m-82 -320 c3 -11 1 -18 -4 -14 -5 3 -9 12 -9
20 0 20 7 17 13 -6z m-3449 1 c3 -5 -1 -11 -9 -14 -9 -4 -12 -1 -8 9 6 16 10
17 17 5z m3391 -172 c-4 -5 -12 -9 -18 -8 -9 0 -8 2 1 6 6 2 9 10 6 15 -4 7
-2 8 5 4 6 -4 9 -12 6 -17z m-45 -64 c-10 -12 -10 -15 0 -15 8 0 11 -3 7 -6
-3 -3 -11 -3 -17 1 -8 5 -8 11 1 21 6 8 14 14 16 14 3 0 0 -7 -7 -15z m541
-49 c-6 -7 -7 -17 -3 -21 4 -5 2 -5 -5 -2 -9 6 -10 18 -4 45 1 2 6 0 11 -3 8
-5 8 -11 1 -19z m-4315 -81 c-1 -8 -5 -17 -9 -21 -11 -12 3 -23 21 -18 14 5
14 4 2 -4 -19 -14 -45 5 -30 23 5 6 7 15 3 19 -4 3 -8 13 -9 22 -2 11 1 12 11
4 7 -6 12 -17 11 -25z m557 -32 c-3 -7 -6 -13 -8 -13 -2 0 -5 6 -8 13 -3 8 1
14 8 14 7 0 11 -6 8 -14z m3724 2 c0 -8 -6 -16 -14 -19 -11 -4 -11 -1 -3 14
13 24 17 25 17 5z m-4266 -58 c-10 -9 -11 -8 -5 6 3 10 9 15 12 12 3 -3 0 -11
-7 -18z m22 -22 c4 -8 3 -16 -1 -19 -4 -3 -9 4 -9 15 -2 23 3 25 10 4z m3647
-25 c0 -5 -2 -10 -4 -10 -3 0 -8 5 -11 10 -3 6 -1 10 4 10 6 0 11 -4 11 -10z
m-8 -27 c-6 -2 -9 -10 -6 -15 4 -7 2 -8 -5 -4 -13 9 -5 26 12 25 9 0 8 -2 -1
-6z m-3062 -33 c0 -5 -2 -10 -4 -10 -3 0 -8 5 -11 10 -3 6 -1 10 4 10 6 0 11
-4 11 -10z m3006 -118 c0 -10 -6 -19 -12 -19 -9 0 -11 13 -5 35 4 11 17 -2 17
-16z m-3490 -121 c-4 -5 0 -12 6 -14 8 -4 9 -6 2 -6 -6 -1 -17 6 -24 14 -10
12 -9 15 4 15 10 0 15 -4 12 -9z m598 -46 c-4 -8 -11 -15 -16 -15 -6 0 -5 6 2
15 7 8 14 15 16 15 2 0 1 -7 -2 -15z m2829 9 c-7 -3 -11 -11 -9 -17 1 -7 1 -9
-1 -4 -3 4 -10 4 -16 0 -7 -4 -6 1 2 10 7 9 19 17 25 16 7 0 7 -2 -1 -5z
m-3393 -65 c0 8 3 12 6 8 3 -3 3 -11 -2 -18 -5 -9 -11 -7 -21 6 -7 11 -13 24
-13 29 1 6 7 0 15 -14 8 -14 14 -19 15 -11z m3945 -8 c3 -5 1 -12 -5 -16 -6
-4 -8 -11 -5 -16 4 -5 1 -9 -4 -9 -14 0 -14 17 0 26 8 4 7 9 -2 15 -10 6 -10
9 -2 9 6 0 14 -4 18 -9z m-3328 -67 c-3 -3 -12 -4 -19 -1 -8 3 -5 6 6 6 11 1
17 -2 13 -5z m2697 -49 c-4 -8 -11 -15 -16 -15 -6 0 -5 6 2 15 7 8 14 15 16
15 2 0 1 -7 -2 -15z m1 -34 c-9 -8 -36 -10 -30 -2 2 4 11 8 20 8 8 0 13 -3 10
-6z m-21 -29 c-6 -4 -10 -15 -8 -25 2 -14 -1 -15 -10 -8 -7 6 -17 7 -22 3 -5
-4 0 3 10 16 11 12 24 22 30 22 8 0 8 -2 0 -8z m-3160 -113 c-3 -5 -10 -7 -15
-3 -5 3 -7 10 -3 15 3 5 10 7 15 3 5 -3 7 -10 3 -15z m610 -57 c3 -5 -1 -9 -9
-9 -8 0 -13 3 -10 5 3 3 -3 11 -13 19 -15 13 -15 13 5 3 12 -5 24 -14 27 -18z
m2457 -65 c-10 -9 -11 -8 -5 6 3 10 9 15 12 12 3 -3 0 -11 -7 -18z m-2906
-156 c-6 -5 -25 10 -25 20 0 5 6 4 14 -3 8 -7 12 -15 11 -17z m3375 5 c0 -11
-19 -15 -25 -6 -3 5 1 10 9 10 9 0 16 -2 16 -4z m-39 -45 c-10 -17 -41 -20
-41 -4 0 3 7 3 14 0 9 -4 17 2 21 14 4 11 9 18 12 16 2 -3 0 -15 -6 -26z
m-3246 -57 c12 -5 14 -9 4 -14 -15 -10 -41 -1 -33 11 6 11 8 11 29 3z m75 -68
c0 -2 -7 -7 -16 -10 -8 -3 -12 -2 -9 4 6 10 25 14 25 6z m2672 -20 c7 4 8 2 4
-4 -4 -6 -13 -9 -21 -6 -8 4 -12 11 -8 17 5 8 8 7 11 -1 2 -7 9 -9 14 -6z
m-2632 -20 c-7 -7 -13 -7 -20 0 -6 6 -3 10 10 10 13 0 16 -4 10 -10z"/>
<path d="M2450 5026 c0 -2 7 -7 16 -10 8 -3 12 -2 9 4 -6 10 -25 14 -25 6z"/>
<path d="M2666 5022 c-3 -5 1 -9 9 -9 8 0 15 4 15 9 0 4 -4 8 -9 8 -6 0 -12
-4 -15 -8z"/>
<path d="M2850 4999 c0 -5 5 -7 10 -4 6 3 10 8 10 11 0 2 -4 4 -10 4 -5 0 -10
-5 -10 -11z"/>
<path d="M2993 4991 c0 -11 5 -18 9 -15 4 3 5 11 1 19 -7 21 -12 19 -10 -4z"/>
<path d="M3095 4969 c-4 -6 -5 -12 -2 -15 2 -3 7 2 10 11 7 17 1 20 -8 4z"/>
<path d="M1956 4958 c3 -5 10 -6 15 -3 13 9 11 12 -6 12 -8 0 -12 -4 -9 -9z"/>
<path d="M1790 4885 c0 -8 4 -15 10 -15 5 0 7 7 4 15 -4 8 -8 15 -10 15 -2 0
-4 -7 -4 -15z"/>
<path d="M1715 4880 c-3 -5 -1 -10 4 -10 6 0 11 5 11 10 0 6 -2 10 -4 10 -3 0
-8 -4 -11 -10z"/>
<path d="M1560 4811 c0 -10 19 -25 25 -20 1 2 -3 10 -11 17 -8 7 -14 8 -14 3z"/>
<path d="M3877 4593 c-3 -5 3 -14 13 -21 19 -11 40 1 26 15 -3 4 -6 0 -6 -8
-1 -10 -4 -9 -14 4 -8 10 -16 14 -19 10z"/>
<path d="M3976 4513 c-6 -14 -5 -15 5 -6 7 7 10 15 7 18 -3 3 -9 -2 -12 -12z"/>
<path d="M1070 4485 c-7 -9 -8 -15 -2 -15 5 0 12 7 16 15 3 8 4 15 2 15 -2 0
-9 -7 -16 -15z"/>
<path d="M2647 4416 c-16 -12 -16 -14 -2 -20 11 -4 14 -2 9 6 -5 7 -2 9 9 5
11 -4 14 -2 10 9 -3 7 -6 14 -7 14 0 0 -9 -7 -19 -14z"/>
<path d="M2294 4408 c-3 -5 -3 -12 0 -15 3 -4 6 -1 6 7 0 10 3 10 14 1 10 -8
16 -9 21 -1 3 5 5 10 3 11 -26 6 -39 5 -44 -3z"/>
<path d="M4099 4398 c13 -15 28 -25 32 -22 13 8 11 14 -3 12 -7 -2 -11 4 -10
12 2 8 0 12 -4 8 -4 -4 -14 -2 -23 4 -9 7 -5 0 8 -14z"/>
<path d="M1819 4329 c-8 -5 -8 -9 0 -13 6 -4 11 -1 11 6 0 11 2 11 9 0 6 -11
10 -10 19 0 8 11 6 14 -9 14 -11 0 -25 -3 -30 -7z"/>
<path d="M3253 4326 c0 -7 11 -12 24 -12 15 0 20 3 13 10 -14 14 -37 16 -37 2z"/>
<path d="M895 4300 c-3 -5 -1 -10 4 -10 6 0 11 5 11 10 0 6 -2 10 -4 10 -3 0
-8 -4 -11 -10z"/>
<path d="M1555 4240 c3 -5 8 -10 11 -10 2 0 4 5 4 10 0 6 -5 10 -11 10 -5 0
-7 -4 -4 -10z"/>
<path d="M1427 4179 c7 -7 15 -10 18 -7 3 3 -2 9 -12 12 -14 6 -15 5 -6 -5z"/>
<path d="M3666 4158 c3 -4 9 -8 15 -8 5 0 9 4 9 8 0 5 -7 9 -15 9 -8 0 -12 -4
-9 -9z"/>
<path d="M4375 4092 c-10 -7 -18 -32 -10 -32 2 0 9 9 15 20 12 22 11 24 -5 12z"/>
<path d="M3830 4079 c0 -5 10 -9 22 -9 12 0 18 3 14 7 -10 11 -36 12 -36 2z"/>
<path d="M721 4063 c-1 -17 16 -25 25 -12 4 7 3 9 -4 5 -5 -3 -13 0 -15 6 -4
9 -6 10 -6 1z"/>
<path d="M4423 4000 c2 -8 12 -16 23 -17 13 -2 15 -1 4 4 -8 3 -19 11 -23 17
-6 7 -7 6 -4 -4z"/>
<path d="M670 3980 c0 -5 5 -10 11 -10 5 0 7 5 4 10 -3 6 -8 10 -11 10 -2 0
-4 -4 -4 -10z"/>
<path d="M4465 3910 c6 -8 10 -18 10 -22 0 -14 15 -20 15 -6 0 9 -8 22 -17 29
-15 12 -16 12 -8 -1z"/>
<path d="M983 3845 c0 -8 4 -12 9 -9 5 3 6 10 3 15 -9 13 -12 11 -12 -6z"/>
<path d="M4535 3820 c3 -5 8 -10 11 -10 2 0 4 5 4 10 0 6 -5 10 -11 10 -5 0
-7 -4 -4 -10z"/>
<path d="M915 3761 c-3 -5 -2 -12 3 -15 5 -3 9 1 9 9 0 17 -3 19 -12 6z"/>
<path d="M530 3674 c0 -8 5 -12 10 -9 6 4 8 11 5 16 -9 14 -15 11 -15 -7z"/>
<path d="M4656 3522 c-3 -5 1 -9 9 -9 8 0 12 4 9 9 -3 4 -7 8 -9 8 -2 0 -6 -4
-9 -8z"/>
<path d="M4696 3228 c3 -5 10 -6 15 -3 13 9 11 12 -6 12 -8 0 -12 -4 -9 -9z"/>
<path d="M655 3201 c-3 -5 -2 -12 3 -15 5 -3 9 1 9 9 0 17 -3 19 -12 6z"/>
<path d="M4690 3201 c0 -5 7 -11 14 -14 10 -4 13 -1 9 9 -6 15 -23 19 -23 5z"/>
<path d="M4790 2819 c0 -5 5 -7 10 -4 6 3 10 8 10 11 0 2 -4 4 -10 4 -5 0 -10
-5 -10 -11z"/>
<path d="M4380 2766 c0 -3 9 -10 20 -16 11 -6 20 -8 20 -6 0 3 -9 10 -20 16
-11 6 -20 8 -20 6z"/>
<path d="M4786 2698 c3 -4 11 -5 19 -1 21 7 19 12 -4 10 -11 0 -18 -5 -15 -9z"/>
<path d="M383 2655 c-3 -9 -3 -18 -1 -21 3 -3 8 4 11 16 6 23 -1 27 -10 5z"/>
<path d="M611 2496 c-8 -10 -8 -16 1 -24 10 -8 13 -4 14 14 2 28 1 29 -15 10z"/>
<path d="M1083 2416 c0 -8 6 -12 14 -9 7 3 13 1 13 -5 0 -6 -8 -9 -17 -7 -10
2 -22 4 -26 4 -5 1 -5 6 -2 11 3 6 1 10 -4 10 -6 0 -11 -8 -11 -17 -1 -16 -2
-16 -15 1 -8 11 -15 14 -15 7 0 -7 -4 -10 -9 -7 -5 4 -7 -4 -4 -16 5 -23 5
-23 -10 -3 -16 20 -16 20 -11 -1 5 -18 2 -21 -19 -19 -19 2 -24 -1 -20 -12 5
-12 7 -12 14 -1 6 9 9 9 9 1 0 -19 -21 -27 -31 -12 -6 10 -9 11 -9 2 0 -19 4
-28 12 -26 4 2 5 -4 2 -11 -3 -8 -13 -12 -22 -9 -15 4 -15 3 -2 -6 12 -8 13
-14 3 -30 -12 -19 0 -41 14 -27 4 3 1 6 -6 6 -7 0 -9 5 -6 10 4 6 11 7 17 4 6
-4 14 0 19 7 6 10 8 8 6 -8 0 -12 -5 -19 -9 -17 -4 3 -8 -2 -8 -10 0 -9 5 -15
12 -13 6 1 11 -10 11 -25 -1 -46 -3 -49 -15 -42 -7 4 -8 3 -4 -4 4 -6 14 -8
24 -5 14 5 15 3 5 -8 -16 -16 -17 -33 -2 -23 8 5 10 -1 7 -20 -3 -14 -2 -29 3
-31 4 -3 6 -14 4 -25 -2 -11 -1 -19 3 -19 19 3 30 -2 35 -15 4 -10 1 -13 -8
-10 -15 6 -15 -20 0 -33 4 -4 5 -2 1 4 -5 9 -2 11 10 6 11 -4 13 -8 6 -11 -7
-2 -12 -11 -12 -21 0 -9 -3 -21 -7 -27 -5 -5 2 1 15 13 13 13 25 23 27 23 5 0
-15 -40 -25 -50 -3 -3 -6 -12 -8 -20 -1 -10 2 -9 13 4 19 24 30 15 16 -13 -12
-21 2 -40 15 -20 5 8 3 9 -6 4 -9 -5 -11 -4 -6 4 4 6 12 9 17 5 5 -3 7 -10 3
-15 -3 -5 -1 -16 5 -23 8 -9 7 -13 -4 -13 -8 0 -12 4 -9 9 3 4 -3 5 -12 1 -16
-6 -16 -7 3 -16 11 -5 26 -20 32 -34 6 -13 15 -22 20 -18 5 3 13 0 17 -6 4 -7
3 -9 -4 -5 -6 3 -13 2 -17 -4 -3 -6 1 -13 9 -16 14 -5 14 -8 1 -21 -18 -17 -6
-46 34 -80 22 -19 23 -23 8 -29 -9 -3 -17 -10 -17 -15 0 -4 6 -6 14 -3 11 4
13 0 9 -18 -4 -18 -3 -20 6 -8 14 20 14 4 0 -22 -10 -18 -8 -19 12 -13 23 7
23 7 4 -11 -17 -17 -17 -19 -2 -22 9 -2 17 -8 17 -13 0 -6 -4 -8 -8 -5 -4 2
-8 -8 -7 -24 0 -32 13 -26 20 10 7 39 16 36 11 -4 -5 -35 -4 -37 12 -24 15 11
16 11 5 -3 -7 -9 -10 -19 -6 -23 4 -4 -1 -4 -12 0 -18 7 -18 6 -6 -9 7 -9 17
-14 22 -11 5 3 9 0 9 -5 0 -11 -15 -15 -35 -11 -5 1 -6 -2 -2 -7 12 -11 40
-10 50 2 7 9 2 -20 -10 -50 -2 -6 5 -20 16 -32 20 -21 22 -38 8 -60 -5 -8 -4
-13 2 -13 10 0 15 14 12 33 -1 5 3 6 8 2 6 -3 8 -12 5 -19 -3 -7 2 -20 10 -29
17 -17 22 -32 7 -22 -5 3 -13 0 -17 -6 -4 -7 -3 -9 3 -6 6 4 16 0 22 -7 9 -11
9 -16 0 -22 -7 -4 -9 -3 -6 3 3 5 0 10 -8 10 -11 0 -12 -4 -4 -14 6 -7 16 -10
22 -6 7 4 8 0 4 -11 -5 -14 -3 -17 8 -13 8 4 17 1 21 -5 4 -7 3 -8 -4 -4 -7 4
-12 2 -12 -4 0 -6 -4 -9 -8 -6 -4 2 -14 0 -22 -6 -13 -8 -12 -9 2 -5 23 8 30
-3 15 -22 -10 -14 -10 -14 4 -4 20 16 33 5 16 -15 -7 -10 -8 -13 -1 -9 7 4 17
0 24 -8 7 -8 17 -12 24 -8 7 5 7 2 -1 -8 -6 -8 -11 -29 -11 -47 1 -28 4 -31
21 -26 12 4 17 2 13 -4 -4 -6 2 -15 11 -21 10 -6 12 -11 6 -11 -7 0 -13 -7
-13 -16 0 -9 6 -14 13 -11 9 3 13 -2 11 -16 -1 -12 -3 -26 -3 -30 -1 -5 -6 -5
-13 -1 -6 4 -8 3 -5 -4 4 -5 17 -8 30 -5 18 4 19 3 7 -6 -8 -6 -10 -11 -4 -11
6 0 18 -17 27 -37 14 -30 14 -34 2 -19 -12 17 -17 18 -28 6 -8 -9 -9 -11 0 -6
15 8 37 -30 27 -46 -5 -7 -3 -8 6 -3 10 6 12 4 7 -8 -7 -19 8 -32 19 -16 5 8
3 9 -6 4 -9 -5 -11 -4 -6 4 12 20 23 3 18 -29 -2 -18 0 -30 7 -30 6 0 11 -5
11 -11 0 -5 -6 -7 -12 -3 -8 5 -6 -3 3 -16 10 -14 24 -24 33 -22 11 2 14 -2 9
-14 -5 -13 -3 -15 8 -9 8 5 7 0 -4 -12 -17 -20 -17 -20 10 -17 24 4 25 3 8 -5
-17 -8 -18 -10 -2 -10 9 -1 18 -5 18 -11 1 -5 2 -16 3 -22 1 -7 7 -12 14 -10
7 1 12 -3 12 -10 0 -9 3 -9 12 0 19 19 32 14 17 -5 -7 -10 -9 -15 -5 -11 5 4
16 2 25 -5 14 -10 14 -10 3 4 -10 13 -9 19 4 30 19 15 47 21 38 8 -3 -5 2 -9
10 -9 15 0 21 12 17 33 -1 4 10 0 24 -9 22 -14 24 -14 19 -1 -3 8 0 18 7 23 8
4 10 3 5 -4 -5 -8 -2 -10 9 -6 11 5 13 10 5 19 -8 9 -3 17 16 30 26 17 27 17
20 -1 -6 -15 -5 -17 5 -6 11 10 10 16 -5 30 -9 9 -16 13 -14 7 2 -5 0 -11 -4
-12 -18 -6 -20 -2 -7 13 7 9 15 26 16 37 2 12 9 26 15 32 7 7 9 7 5 -1 -11
-19 -16 -64 -8 -64 5 0 9 12 9 26 0 15 5 30 12 34 10 6 10 8 0 12 -8 2 -14 13
-16 24 -3 18 -2 18 11 0 13 -18 14 -18 12 2 0 11 -4 20 -7 20 -25 -2 -30 3
-18 16 7 8 17 12 21 9 5 -3 3 4 -5 16 -7 12 -18 21 -25 21 -7 0 -13 4 -13 10
0 5 8 7 18 3 9 -3 14 -3 10 2 -4 4 -3 13 2 20 7 8 5 12 -5 12 -8 0 -11 -5 -8
-11 4 -6 2 -7 -3 -3 -5 5 -9 12 -9 15 0 4 -4 14 -9 22 -7 12 -6 13 5 2 17 -16
26 -15 26 3 0 8 -3 12 -7 10 -3 -2 -11 -1 -17 3 -15 9 -24 72 -11 72 6 0 8 -7
5 -14 -4 -10 -1 -13 9 -9 10 4 12 9 4 18 -5 6 -6 16 -2 20 4 5 -1 5 -10 2 -12
-4 -15 -2 -11 10 3 8 0 19 -8 24 -12 7 -12 9 1 9 12 1 11 3 -3 11 -17 10 -17
12 -2 36 10 14 12 22 5 18 -9 -5 -10 -1 -5 16 7 23 6 23 -8 5 -14 -19 -14 -19
-14 7 0 17 4 24 11 20 7 -4 7 -2 -1 7 -6 7 -9 20 -5 28 5 14 4 15 -10 2 -11
-11 -12 -17 -4 -22 7 -5 7 -8 0 -8 -19 0 -23 12 -11 31 9 14 7 22 -8 40 -11
12 -15 19 -9 16 7 -4 14 0 17 7 4 10 0 14 -12 11 -15 -3 -17 1 -13 17 4 16 2
19 -8 13 -9 -5 -11 -4 -6 4 4 6 11 9 16 6 5 -3 11 -1 14 4 4 5 -4 8 -17 7 -20
-2 -22 2 -21 34 0 20 4 42 8 48 4 8 3 11 -4 10 -7 -2 -14 4 -15 12 -2 8 -5 27
-8 41 -3 15 -12 40 -21 57 -9 17 -12 32 -8 35 4 2 1 2 -5 1 -16 -4 -17 8 -3
24 7 9 7 9 -1 3 -11 -9 -39 8 -39 25 0 4 -8 13 -17 20 -17 13 -17 14 1 7 14
-5 17 -3 11 7 -5 9 -4 11 3 6 7 -4 12 -2 12 3 0 6 -9 11 -20 11 -17 0 -19 2
-8 14 7 8 16 12 21 9 4 -2 7 0 7 5 0 15 -28 23 -36 10 -5 -7 -2 -8 6 -3 9 5
11 4 6 -4 -12 -19 -27 -2 -16 19 14 27 12 34 -5 20 -20 -16 -19 -6 1 14 8 9
11 16 5 16 -5 0 -13 -5 -17 -11 -5 -8 -9 -8 -14 1 -11 17 0 51 14 43 6 -4 5 1
-3 10 -16 20 -25 23 -15 5 4 -8 3 -10 -2 -5 -5 5 -9 12 -9 15 0 4 -3 12 -7 18
-4 6 -1 11 7 11 8 0 15 -5 15 -10 0 -6 3 -7 6 -4 11 11 -16 36 -32 30 -9 -3
-14 2 -14 16 0 12 -5 21 -12 21 -6 0 -8 3 -4 7 4 5 14 0 21 -11 13 -18 14 -18
12 2 0 11 -4 20 -7 20 -23 -2 -29 5 -25 33 3 24 -1 32 -20 41 -14 6 -22 15
-18 21 3 5 8 4 13 -3 5 -8 9 -8 13 3 5 12 -1 15 -26 11 -23 -2 -28 -1 -17 6
14 9 7 15 -14 11 -5 -1 -4 4 3 13 7 8 8 17 2 20 -5 3 -8 17 -6 31 2 19 -6 31
-26 46 -16 11 -27 25 -23 30 3 5 9 7 14 4 5 -3 12 -1 15 5 4 6 3 10 -2 9 -19
-3 -33 2 -33 12 0 5 4 8 9 4 5 -3 12 -1 16 4 3 6 -6 8 -21 5 -21 -4 -25 -2
-18 8 12 15 12 38 2 38 -5 0 -11 0 -14 0 -4 0 -1 -7 6 -15 8 -9 8 -15 2 -15
-16 0 -21 23 -10 44 6 10 6 16 1 13 -13 -8 -29 5 -38 32 -5 18 -4 22 6 16 8
-5 10 -4 6 0 -7 8 -27 15 -53 17 -6 1 -11 7 -11 15 0 10 3 10 16 0 14 -10 14
-10 4 4 -7 9 -11 18 -8 20 2 3 -8 5 -23 5 -22 -1 -27 3 -27 23 0 13 -7 26 -15
28 -12 4 -12 3 -1 -5 8 -6 9 -12 3 -16 -5 -3 -13 1 -16 9 -3 8 -9 15 -13 14
-27 -5 -35 1 -23 16 11 13 10 14 -5 9 -13 -5 -16 -4 -11 4 4 7 2 12 -3 12 -6
0 -11 -4 -11 -10 0 -5 -5 -10 -11 -10 -6 0 -8 7 -4 18 5 13 3 14 -6 5 -9 -9
-17 -8 -34 3 -18 12 -22 12 -22 0z m-113 -120 c0 -3 -4 -8 -10 -11 -5 -3 -10
-1 -10 4 0 6 5 11 10 11 6 0 10 -2 10 -4z m45 -234 c-3 -3 0 -11 6 -19 6 -7 9
-13 5 -13 -3 0 -9 0 -13 0 -5 0 -8 3 -8 8 0 4 -3 12 -7 18 -4 6 -1 11 7 11 8
0 13 -3 10 -5z m440 -22 c3 -6 -1 -7 -9 -4 -18 7 -21 14 -7 14 6 0 13 -4 16
-10z m-320 -360 c-3 -5 -2 -10 3 -10 5 0 9 -7 9 -16 0 -15 -2 -14 -13 1 -12
16 -11 35 2 35 3 0 2 -4 -1 -10z m564 -257 c21 -46 23 -70 5 -77 -14 -5 -15
-4 -4 9 10 12 10 15 -1 15 -11 0 -11 2 1 10 12 8 12 10 -5 11 -11 0 -15 3 -8
5 7 3 9 12 6 20 -3 7 -8 12 -12 9 -4 -2 -8 2 -8 10 0 24 13 17 26 -12z m-416
-120 c-7 -2 -13 -9 -13 -14 0 -6 4 -8 8 -5 5 3 9 -2 9 -10 0 -13 -2 -13 -15 0
-15 15 -9 37 11 35 9 0 9 -2 0 -6z m454 1 c-3 -3 -12 -4 -19 -1 -8 3 -5 6 6 6
11 1 17 -2 13 -5z m-357 -263 c13 -25 13 -31 -1 -31 -5 0 -8 4 -4 9 3 5 -2 17
-11 25 -8 9 -11 16 -5 16 6 0 15 -9 21 -19z m50 -105 c0 -2 -7 -9 -15 -16 -13
-11 -14 -10 -9 4 5 14 24 23 24 12z m460 -231 c0 -7 -30 -13 -34 -7 -3 4 4 9
15 9 10 1 19 0 19 -2z m-360 -25 c0 -5 -4 -10 -10 -10 -5 0 -10 5 -10 10 0 6
5 10 10 10 6 0 10 -4 10 -10z m337 -52 c-3 -7 -5 -2 -5 12 0 14 2 19 5 13 2
-7 2 -19 0 -25z m-300 -24 c-3 -3 -12 -4 -19 -1 -8 3 -5 6 6 6 11 1 17 -2 13
-5z m20 -39 c0 -8 -4 -12 -9 -9 -5 3 -6 10 -3 15 9 13 12 11 12 -6z m-23 -11
c3 -8 2 -12 -4 -9 -6 3 -10 10 -10 16 0 14 7 11 14 -7z m100 -107 c-3 -8 -12
-14 -21 -14 -13 0 -13 2 3 14 10 7 19 13 21 13 1 0 0 -6 -3 -13z"/>
<path d="M3970 2427 c0 -2 6 -10 14 -16 11 -9 16 -9 22 1 4 7 4 10 -1 6 -4 -4
-14 -3 -22 3 -7 6 -13 9 -13 6z"/>
<path d="M615 2400 c3 -5 8 -10 11 -10 2 0 4 5 4 10 0 6 -5 10 -11 10 -5 0 -7
-4 -4 -10z"/>
<path d="M3926 2395 c-3 -9 -10 -13 -16 -10 -6 4 -7 -1 -3 -12 5 -15 3 -16 -8
-5 -21 19 -31 14 -12 -7 9 -11 21 -17 26 -14 6 3 7 1 3 -6 -6 -9 -11 -9 -21
-1 -10 8 -18 4 -36 -17 -12 -15 -19 -20 -16 -11 4 11 2 15 -7 12 -7 -3 -12
-16 -10 -29 1 -14 -2 -27 -6 -30 -5 -3 -7 4 -5 15 2 11 0 18 -6 15 -5 -4 -9
-13 -9 -21 0 -8 -4 -14 -9 -14 -5 0 -7 10 -4 23 3 12 3 20 0 17 -10 -9 -16
-61 -6 -55 5 4 9 1 9 -4 0 -6 -7 -12 -15 -12 -29 -3 -33 -4 -42 -13 -4 -5 -4
-7 2 -4 6 3 17 -1 25 -10 13 -14 12 -15 -2 -10 -17 7 -48 -20 -48 -41 0 -7 -4
-10 -8 -7 -4 2 -9 -5 -9 -17 -2 -20 -1 -20 8 -4 6 9 15 17 22 17 8 0 9 -2 1
-8 -18 -12 -35 -52 -28 -64 5 -7 3 -8 -5 -4 -7 5 -10 15 -6 25 5 12 3 13 -5 5
-9 -9 -9 -17 0 -34 14 -26 5 -40 -13 -20 -10 10 -9 11 2 5 10 -6 12 -4 7 4 -6
9 -13 8 -27 -5 -20 -18 -25 -29 -9 -19 6 3 10 1 10 -5 0 -6 4 -8 10 -5 6 3 7
-1 4 -9 -7 -19 -24 -21 -25 -3 0 6 -4 3 -9 -8 -5 -14 -3 -24 8 -32 14 -12 14
-13 -4 -14 -10 -1 -23 -1 -27 0 -5 1 -6 -3 -2 -9 3 -6 10 -8 15 -5 5 3 12 0
16 -6 5 -8 3 -9 -6 -4 -10 6 -12 4 -7 -8 3 -9 3 -16 -1 -15 -12 3 -52 -13 -52
-22 0 -4 7 -10 14 -13 10 -4 13 -1 9 9 -3 9 1 14 13 14 14 0 16 -2 6 -9 -8 -4
-13 -11 -13 -15 1 -3 -6 -20 -14 -36 -12 -23 -13 -30 -3 -30 7 -1 2 -7 -12
-14 -14 -8 -27 -13 -30 -11 -3 2 -7 -5 -7 -16 -1 -10 3 -19 9 -19 6 0 8 -3 4
-7 -4 -5 -12 -8 -18 -8 -14 0 -18 -29 -7 -46 7 -10 8 -6 5 13 -4 22 -1 26 12
21 10 -4 12 -8 4 -11 -7 -2 -10 -8 -6 -13 10 -16 -6 -31 -21 -19 -11 9 -12 7
-8 -9 3 -12 9 -18 14 -15 5 3 9 0 9 -6 0 -6 -11 -8 -26 -6 -23 4 -24 3 -12
-11 11 -14 11 -16 -4 -10 -13 5 -16 1 -12 -16 12 -52 11 -65 -3 -60 -10 4 -11
9 -3 18 8 10 8 15 -1 21 -7 4 -9 3 -5 -4 3 -6 2 -14 -4 -17 -8 -5 -8 -11 0
-20 15 -18 4 -35 -22 -35 -25 0 -18 -10 9 -14 10 -2 22 2 26 8 6 7 7 6 5 -3
-2 -8 -15 -16 -28 -18 -24 -3 -40 -19 -40 -37 0 -6 6 -2 13 8 13 17 14 18 20
2 4 -10 3 -15 -3 -11 -6 3 -10 -3 -10 -15 0 -12 -4 -19 -9 -15 -5 3 -12 1 -15
-4 -4 -5 -1 -13 5 -17 8 -5 9 -3 4 6 -6 9 -4 11 5 5 10 -6 7 -12 -10 -25 -17
-13 -20 -19 -9 -22 12 -5 12 -7 0 -19 -9 -9 -11 -9 -7 -1 4 6 2 12 -3 12 -15
0 -14 -23 2 -39 6 -8 7 -11 2 -8 -6 3 -18 -1 -28 -8 -16 -11 -16 -13 -2 -19 9
-3 13 -2 10 4 -3 6 1 7 10 4 9 -4 15 -7 13 -8 -2 -1 -12 -8 -22 -16 -18 -13
-19 -13 -11 0 7 12 6 13 -7 3 -8 -7 -19 -9 -24 -5 -4 4 -2 -2 6 -13 22 -30 24
-32 16 -10 -6 16 -5 18 5 7 11 -10 10 -16 -5 -30 -11 -9 -16 -12 -12 -5 3 6 3
14 -2 17 -5 3 -8 -13 -7 -35 1 -21 -2 -39 -7 -39 -4 0 -6 -20 -3 -45 2 -25 0
-45 -6 -45 -5 0 -8 -3 -8 -7 4 -26 -2 -33 -19 -24 -14 7 -19 6 -19 -4 0 -8 4
-12 9 -9 4 3 8 0 8 -5 0 -6 -6 -11 -12 -11 -9 0 -10 -3 -2 -8 13 -8 15 -44 2
-36 -5 3 -5 11 -2 17 4 7 3 9 -1 4 -8 -7 -11 -20 -18 -75 -2 -13 -9 -27 -17
-32 -20 -13 -3 -13 20 0 13 7 21 7 26 -2 4 -6 3 -8 -4 -4 -6 3 -13 2 -16 -3
-4 -5 -2 -12 4 -16 15 -10 2 -25 -16 -18 -13 5 -13 7 -2 14 7 5 8 9 2 9 -24 0
-23 -15 3 -44 16 -17 20 -24 11 -17 -14 10 -18 9 -26 -6 -5 -10 -7 -25 -4 -33
5 -13 3 -13 -14 0 -17 14 -18 14 -6 -2 8 -9 11 -22 8 -27 -4 -5 -1 -13 5 -17
7 -4 9 -3 6 2 -3 6 -1 16 5 24 8 13 9 12 5 -1 -3 -9 -1 -21 5 -27 8 -8 4 -10
-15 -6 -15 2 -27 0 -27 -6 0 -5 3 -9 8 -9 22 4 30 -4 28 -26 -1 -14 -5 -28 -9
-31 -3 -3 -4 6 -3 20 2 14 -1 23 -6 20 -5 -3 -7 -12 -4 -20 3 -8 0 -14 -7 -14
-7 0 -4 -5 6 -11 9 -5 23 -7 30 -3 6 4 9 4 5 -1 -4 -4 -3 -14 3 -22 7 -8 8
-13 1 -13 -13 0 -22 -49 -10 -56 5 -4 15 -1 21 6 10 10 8 11 -8 6 -15 -6 -17
-4 -8 5 16 16 38 2 23 -16 -18 -22 6 -58 33 -50 17 5 19 4 7 -4 -16 -12 -18
-11 35 -15 14 -1 19 -7 17 -20 -3 -16 -1 -18 11 -8 7 6 18 8 22 4 5 -4 5 2 1
13 -5 15 -4 17 5 8 14 -14 2 -36 -14 -27 -7 4 -9 3 -4 -1 13 -15 46 -13 40 2
-5 12 8 18 30 14 4 0 8 3 8 9 1 5 2 14 3 19 0 5 4 13 8 17 4 3 6 -3 3 -14 -2
-15 0 -19 11 -15 7 3 11 9 8 14 -3 5 2 9 10 9 20 0 29 17 15 26 -8 4 -9 3 -5
-4 5 -8 1 -10 -10 -5 -15 5 -15 7 0 15 9 5 22 6 29 2 7 -5 6 0 -3 11 -14 17
-13 18 4 12 17 -7 17 -6 5 10 -12 15 -12 16 3 10 9 -3 22 1 28 9 8 9 9 14 2
14 -6 0 -12 -5 -14 -12 -3 -9 -6 -9 -12 0 -4 8 1 16 16 21 13 6 18 10 12 10
-6 1 -11 8 -11 16 0 12 3 12 15 2 13 -10 14 -9 3 11 -6 12 -8 22 -3 22 5 0 8
13 7 28 -2 22 2 28 18 29 17 2 18 1 3 -10 -12 -9 -13 -16 -5 -27 9 -12 10 -12
5 4 -5 14 -2 17 11 12 10 -4 14 -4 10 0 -4 4 1 13 11 21 16 12 15 13 -3 7 -16
-6 -17 -4 -8 6 7 7 8 22 3 39 -6 20 -4 28 6 28 7 0 10 -5 7 -11 -4 -6 -2 -7 3
-3 11 10 12 50 2 57 -4 3 2 11 13 19 12 7 18 8 14 2 -10 -17 1 -13 16 6 10 11
10 14 2 9 -8 -4 -13 -2 -13 4 0 6 -5 8 -12 4 -7 -4 -8 -3 -4 5 4 6 10 9 14 7
4 -2 16 8 26 22 11 14 14 22 8 18 -7 -4 -12 -2 -12 3 0 6 5 11 10 11 6 0 10 5
10 11 0 5 -4 8 -8 5 -5 -3 -9 1 -9 8 0 7 7 13 16 12 9 -1 16 7 16 19 0 13 -7
20 -18 19 -9 -1 -14 2 -11 8 3 5 15 6 27 2 21 -7 21 -6 2 22 l-18 29 22 -20
c23 -20 23 -20 20 0 -2 11 -8 23 -12 26 -5 3 -1 9 8 12 9 4 14 3 11 -1 -2 -4
0 -14 5 -22 9 -13 10 -13 8 0 -3 30 1 41 13 34 7 -4 8 -3 4 5 -4 6 -12 9 -17
6 -5 -4 -9 -2 -9 3 0 6 7 13 16 16 8 3 12 11 8 17 -5 8 -9 8 -14 -1 -5 -9 -9
-9 -14 -1 -4 6 -2 11 4 11 6 0 8 5 4 12 -5 7 -3 8 6 3 10 -6 12 -4 7 8 -4 11
-2 14 8 11 8 -3 11 -12 8 -20 -3 -8 1 -14 8 -14 7 0 9 3 6 7 -4 3 -2 12 4 19
7 8 6 14 -2 20 -8 5 -9 3 -4 -6 5 -9 4 -11 -4 -6 -16 10 -3 29 16 22 8 -3 12
-2 8 3 -3 5 -2 11 2 14 5 2 2 2 -4 1 -7 -2 -13 1 -13 6 0 6 5 10 12 10 6 0 3
7 -8 15 -13 11 -14 13 -3 9 19 -6 34 22 17 32 -7 5 -8 2 -3 -6 5 -9 4 -11 -4
-6 -6 4 -9 12 -5 17 3 5 10 7 15 3 6 -3 13 4 16 16 3 12 11 19 19 16 7 -3 16
-1 19 5 4 5 3 9 -2 8 -29 -5 -35 3 -13 16 14 8 20 14 14 15 -15 0 -25 38 -13
46 6 3 7 14 4 24 -3 10 -1 21 4 25 7 3 8 0 5 -10 -5 -11 -2 -14 10 -9 9 3 16
9 17 13 0 3 2 14 4 24 2 9 -1 17 -6 17 -4 0 -6 7 -2 16 5 13 8 13 15 2 7 -9 8
-6 5 11 -6 27 12 73 25 65 5 -3 1 -16 -9 -27 l-18 -22 22 19 c17 14 20 22 12
32 -8 10 -7 19 5 35 11 16 12 26 5 35 -7 8 -6 15 2 20 8 5 10 3 5 -7 -4 -8 0
-5 8 5 9 11 21 23 27 27 7 4 5 8 -6 12 -10 5 -14 3 -9 -5 4 -7 3 -8 -4 -4 -6
4 -9 13 -6 21 5 11 11 12 26 4 13 -7 18 -7 14 -1 -3 6 -3 12 1 15 5 2 2 2 -4
1 -7 -2 -13 1 -13 7 0 6 -5 7 -12 3 -7 -5 -8 -3 -4 5 5 7 15 10 23 6 14 -5 14
-3 2 12 -12 15 -12 16 4 10 15 -6 16 -4 6 15 -10 18 -9 20 7 14 17 -5 17 -5
-1 10 -20 16 -20 16 4 11 l23 -6 -21 20 c-26 25 -27 33 -2 19 29 -15 37 -12
15 6 -19 15 -19 15 3 11 15 -3 20 -1 16 9 -3 8 -9 11 -14 8 -5 -3 -1 9 10 27
12 20 17 39 12 48 -12 27 -7 46 14 49 11 2 25 9 30 14 7 8 5 9 -7 5 -10 -4
-18 -2 -18 3 0 6 5 10 10 10 6 0 10 5 10 11 0 5 -4 7 -10 4 -5 -3 -7 0 -4 9 3
8 12 12 19 10 7 -3 16 0 20 6 3 6 3 10 -2 9 -20 -3 -34 2 -28 11 4 6 10 8 15
5 4 -3 6 5 2 17 -3 12 -1 19 5 15 5 -3 10 1 10 9 0 9 -6 13 -16 9 -13 -4 -12
-2 2 9 17 13 25 32 9 22 -5 -3 -9 1 -9 9 0 8 4 12 9 9 10 -6 11 10 1 20 -11
10 -12 37 -2 30 5 -3 7 -9 4 -14 -11 -18 11 -16 28 2 17 18 17 19 0 16 -14 -2
-18 4 -19 29 -1 33 -18 63 -36 63 -5 0 -6 -10 -3 -22 7 -22 7 -22 -8 -3 -8 10
-14 24 -13 30 2 5 1 7 -1 3 -3 -5 -9 -8 -14 -8 -6 0 -7 6 -3 13 5 7 0 6 -11
-3 -11 -9 -16 -10 -11 -2 4 6 3 12 -3 12 -5 0 -12 -8 -14 -17 -4 -17 -5 -17
-6 0 -1 17 -31 25 -31 8 0 -5 -8 -8 -17 -6 -10 1 -23 -2 -30 -7 -7 -5 -17 -7
-22 -4 -5 4 -14 -2 -20 -11 -6 -10 -11 -13 -11 -7 0 5 5 15 12 22 6 6 9 14 6
17 -3 3 -8 -1 -12 -10z m234 -34 c7 -15 7 -22 -2 -27 -7 -4 -10 -4 -6 1 4 4 3
16 -3 26 -5 11 -7 19 -5 19 3 0 10 -9 16 -19z m-424 -208 c-10 -10 -19 5 -10
18 6 11 8 11 12 0 2 -7 1 -15 -2 -18z m364 -169 c0 -8 -19 -13 -24 -6 -3 5 1
9 9 9 8 0 15 -2 15 -3z m-540 -224 c0 -5 -5 -10 -11 -10 -5 0 -7 5 -4 10 3 6
8 10 11 10 2 0 4 -4 4 -10z m361 -267 c13 -16 12 -17 -3 -4 -17 13 -22 21 -14
21 2 0 10 -8 17 -17z m-635 -578 c-1 -8 -7 -20 -13 -26 -9 -9 -11 -7 -8 7 2
11 4 22 4 27 1 4 5 7 10 7 5 0 8 -7 7 -15z m424 -11 c0 -8 -19 -13 -24 -6 -3
5 1 9 9 9 8 0 15 -2 15 -3z m-453 -141 c-4 -3 -1 -13 6 -22 11 -14 10 -14 -5
-2 -16 12 -16 31 -1 31 4 0 3 -3 0 -7z m376 -28 c6 -15 -10 -32 -20 -21 -4 3
-1 6 7 6 10 0 10 3 0 15 -7 9 -8 15 -2 15 5 0 12 -7 15 -15z"/>
<path d="M3950 2400 c0 -5 5 -10 10 -10 6 0 10 5 10 10 0 6 -4 10 -10 10 -5 0
-10 -4 -10 -10z"/>
<path d="M4713 2385 c0 -8 4 -12 9 -9 5 3 6 10 3 15 -9 13 -12 11 -12 -6z"/>
<path d="M1205 2380 c-3 -6 1 -7 9 -4 18 7 21 14 7 14 -6 0 -13 -4 -16 -10z"/>
<path d="M3833 2346 c-3 -5 -1 -6 5 -2 5 3 12 1 14 -5 2 -7 8 -7 15 3 10 11 8
14 -8 14 -11 0 -23 -5 -26 -10z"/>
<path d="M4186 2334 c-8 -21 -8 -24 5 -24 5 0 8 4 5 9 -4 5 -1 11 6 13 8 3 9
6 1 11 -6 4 -14 0 -17 -9z"/>
<path d="M4375 2340 c-3 -5 -1 -10 4 -10 6 0 11 5 11 10 0 6 -2 10 -4 10 -3 0
-8 -4 -11 -10z"/>
<path d="M1266 2331 c-4 -5 3 -7 14 -4 23 6 26 13 6 13 -8 0 -17 -4 -20 -9z"/>
<path d="M4182 2250 c-9 -14 -9 -21 0 -26 6 -4 8 -3 4 4 -3 6 1 15 10 20 9 5
12 12 7 15 -5 3 -14 -3 -21 -13z"/>
<path d="M1373 2235 c0 -8 4 -12 9 -9 5 3 6 10 3 15 -9 13 -12 11 -12 -6z"/>
<path d="M4340 2198 c0 -4 7 -8 15 -8 8 0 15 4 15 8 0 5 -7 9 -15 9 -8 0 -15
-4 -15 -9z"/>
<path d="M4767 2203 c-5 -9 -1 -37 7 -59 3 -8 12 -11 22 -7 15 5 15 7 0 15 -9
5 -14 13 -11 18 3 5 1 11 -5 15 -6 4 -8 11 -5 16 4 5 4 9 1 9 -3 0 -7 -3 -9
-7z"/>
<path d="M757 2189 c7 -7 15 -10 18 -7 3 3 -2 9 -12 12 -14 6 -15 5 -6 -5z"/>
<path d="M1426 2078 c3 -4 12 -8 20 -8 8 0 14 4 14 8 0 4 -9 8 -19 8 -11 0
-17 -4 -15 -8z"/>
<path d="M776 2061 c-3 -5 1 -14 8 -20 10 -9 16 -9 21 -1 4 6 3 10 -2 9 -20
-3 -27 2 -13 11 9 6 10 10 3 10 -6 0 -14 -4 -17 -9z"/>
<path d="M815 2030 c-10 -11 -14 -20 -9 -20 5 0 15 9 22 20 7 11 11 20 9 20
-2 0 -12 -9 -22 -20z"/>
<path d="M4108 2033 c7 -3 16 -2 19 1 4 3 -2 6 -13 5 -11 0 -14 -3 -6 -6z"/>
<path d="M290 2020 c0 -5 5 -10 11 -10 5 0 7 5 4 10 -3 6 -8 10 -11 10 -2 0
-4 -4 -4 -10z"/>
<path d="M4815 2021 c-3 -5 -2 -12 3 -15 5 -3 9 1 9 9 0 17 -3 19 -12 6z"/>
<path d="M1477 1987 c4 -6 8 -15 8 -19 0 -9 15 -11 15 -3 0 3 0 9 0 14 0 5 -7
12 -16 15 -10 4 -13 2 -7 -7z"/>
<path d="M4293 1948 c1 -7 -4 -12 -11 -10 -8 1 -11 -2 -7 -8 5 -8 11 -8 21 1
7 6 11 15 8 20 -8 13 -14 11 -11 -3z"/>
<path d="M3586 1922 c-3 -5 1 -9 9 -9 8 0 12 4 9 9 -3 4 -7 8 -9 8 -2 0 -6 -4
-9 -8z"/>
<path d="M4805 1900 c-3 -5 -2 -10 4 -10 5 0 13 5 16 10 3 6 2 10 -4 10 -5 0
-13 -4 -16 -10z"/>
<path d="M3575 1849 c-4 -6 -5 -12 -2 -15 2 -3 7 2 10 11 7 17 1 20 -8 4z"/>
<path d="M4246 1804 c-5 -14 -4 -15 9 -4 17 14 19 20 6 20 -5 0 -12 -7 -15
-16z"/>
<path d="M3540 1800 c0 -6 7 -10 15 -10 8 0 15 2 15 4 0 2 -7 6 -15 10 -8 3
-15 1 -15 -4z"/>
<path d="M1074 1761 c0 -11 5 -19 11 -18 5 1 9 -4 7 -11 -1 -8 2 -11 8 -7 6 4
4 15 -6 31 -20 29 -20 29 -20 5z"/>
<path d="M4785 1769 c-11 -16 -1 -19 13 -3 7 8 8 14 3 14 -5 0 -13 -5 -16 -11z"/>
<path d="M881 1733 c-1 -17 16 -25 25 -12 4 7 3 9 -4 5 -5 -3 -13 0 -15 6 -4
9 -6 10 -6 1z"/>
<path d="M1095 1700 c-3 -5 -2 -10 4 -10 5 0 13 5 16 10 3 6 2 10 -4 10 -5 0
-13 -4 -16 -10z"/>
<path d="M1595 1680 c-3 -6 1 -7 9 -4 18 7 21 14 7 14 -6 0 -13 -4 -16 -10z"/>
<path d="M3995 1629 c-4 -6 -5 -12 -2 -15 2 -3 7 2 10 11 7 17 1 20 -8 4z"/>
<path d="M1128 1613 c6 -2 10 -8 8 -12 -3 -4 5 -8 16 -8 20 -2 20 -1 2 12 -11
8 -23 14 -29 14 -5 0 -4 -3 3 -6z"/>
<path d="M352 1606 c4 -5 3 -15 -3 -22 -7 -9 -6 -12 5 -10 25 3 28 12 9 27
-10 7 -15 9 -11 5z"/>
<path d="M1656 1525 c4 -8 10 -15 15 -15 4 0 6 7 3 15 -4 8 -10 15 -15 15 -4
0 -6 -7 -3 -15z"/>
<path d="M3436 1522 c-3 -5 1 -9 9 -9 8 0 12 4 9 9 -3 4 -7 8 -9 8 -2 0 -6 -4
-9 -8z"/>
<path d="M3902 1430 c-7 -11 -8 -20 -3 -20 5 0 12 7 15 16 3 8 11 12 17 8 8
-4 9 -3 5 4 -10 17 -19 15 -34 -8z"/>
<path d="M3375 1369 c-4 -6 -5 -12 -2 -15 2 -3 7 2 10 11 7 17 1 20 -8 4z"/>
<path d="M435 1320 c-3 -5 -1 -10 4 -10 6 0 11 5 11 10 0 6 -2 10 -4 10 -3 0
-8 -4 -11 -10z"/>
<path d="M3871 1284 c0 -11 3 -14 6 -6 3 7 2 16 -1 19 -3 4 -6 -2 -5 -13z"/>
<path d="M4053 1281 c-1 -11 4 -22 12 -24 15 -6 14 18 -1 33 -6 6 -10 3 -11
-9z"/>
<path d="M1064 1247 c2 -13 7 -31 13 -41 9 -17 10 -17 16 3 3 11 0 19 -5 18
-6 -1 -13 4 -16 12 -3 10 0 11 9 5 12 -7 12 -5 0 9 -18 22 -20 21 -17 -6z"/>
<path d="M1780 1200 c0 -5 5 -10 10 -10 6 0 10 5 10 10 0 6 -4 10 -10 10 -5 0
-10 -4 -10 -10z"/>
<path d="M1286 1163 c-6 -14 -5 -15 5 -6 7 7 10 15 7 18 -3 3 -9 -2 -12 -12z"/>
<path d="M3998 1123 c7 -3 16 -2 19 1 4 3 -2 6 -13 5 -11 0 -14 -3 -6 -6z"/>
<path d="M3986 1101 c-4 -5 1 -8 9 -7 21 3 31 16 12 16 -9 0 -18 -4 -21 -9z"/>
<path d="M3300 1090 c-13 -9 -13 -11 0 -20 13 -9 13 -10 0 -11 -8 -1 -19 -1
-24 0 -5 1 -4 -5 4 -13 7 -9 18 -16 24 -16 6 0 5 4 -3 9 -10 7 -11 9 0 13 7 2
13 14 14 26 1 12 1 22 1 22 -1 0 -8 -5 -16 -10z"/>
<path d="M1373 975 c0 -8 4 -12 9 -9 5 3 6 10 3 15 -9 13 -12 11 -12 -6z"/>
<path d="M1840 980 c-9 -6 -10 -10 -3 -10 6 0 15 5 18 10 8 12 4 12 -15 0z"/>
<path d="M3939 965 c-1 -3 -2 -11 -3 -17 -1 -7 -8 -12 -15 -10 -7 1 -9 -2 -6
-9 9 -13 28 3 31 26 2 13 -4 22 -7 10z"/>
<path d="M1183 903 c0 -9 4 -10 14 -2 7 6 13 12 13 14 0 1 -6 2 -13 2 -8 0
-14 -6 -14 -14z"/>
<path d="M590 879 c0 -5 5 -7 10 -4 6 3 10 8 10 11 0 2 -4 4 -10 4 -5 0 -10
-5 -10 -11z"/>
<path d="M1410 880 c0 -5 5 -10 11 -10 5 0 7 5 4 10 -3 6 -8 10 -11 10 -2 0
-4 -4 -4 -10z"/>
<path d="M1867 853 c-13 -12 -7 -22 12 -20 15 1 17 4 9 14 -12 15 -13 15 -21
6z"/>
<path d="M597 823 c3 -7 6 -13 8 -13 2 0 5 6 8 13 3 8 -1 14 -8 14 -7 0 -11
-6 -8 -14z"/>
<path d="M1430 820 c0 -5 5 -10 11 -10 5 0 7 5 4 10 -3 6 -8 10 -11 10 -2 0
-4 -4 -4 -10z"/>
<path d="M3674 816 c1 -8 5 -18 8 -22 4 -3 5 1 4 10 -1 8 -5 18 -8 22 -4 3 -5
-1 -4 -10z"/>
<path d="M3227 799 c7 -7 15 -10 18 -7 3 3 -2 9 -12 12 -14 6 -15 5 -6 -5z"/>
<path d="M1295 700 c3 -5 8 -10 11 -10 2 0 4 5 4 10 0 6 -5 10 -11 10 -5 0 -7
-4 -4 -10z"/>
<path d="M662 691 c-11 -6 -10 -10 4 -15 9 -3 19 -4 22 -1 3 3 0 5 -7 5 -7 0
-9 5 -6 10 7 12 4 12 -13 1z"/>
<path d="M3233 578 c1 -7 -5 -12 -13 -10 -12 3 -13 1 -2 -10 11 -11 14 -10 22
2 13 19 12 30 0 30 -5 0 -9 -6 -7 -12z"/>
<path d="M748 533 c6 -2 9 -10 6 -15 -4 -7 -2 -8 5 -4 13 9 5 26 -12 25 -9 0
-8 -2 1 -6z"/>
<path d="M1363 504 c0 -8 4 -14 9 -14 5 0 6 -6 2 -12 -4 -7 -3 -9 1 -5 14 12
14 35 1 40 -7 3 -13 -1 -13 -9z"/>
<path d="M3718 471 c-13 -13 -14 -18 -4 -18 7 0 18 9 25 19 14 23 2 22 -21 -1z"/>
<path d="M1776 435 c-9 -26 -7 -32 5 -12 6 10 9 21 6 23 -2 3 -7 -2 -11 -11z"/>
<path d="M1715 429 c-9 -14 -2 -20 14 -10 8 6 9 11 3 15 -6 3 -14 1 -17 -5z"/>
<path d="M3315 430 c-3 -5 -1 -10 4 -10 6 0 11 5 11 10 0 6 -2 10 -4 10 -3 0
-8 -4 -11 -10z"/>
<path d="M3348 433 c7 -3 16 -2 19 1 4 3 -2 6 -13 5 -11 0 -14 -3 -6 -6z"/>
<path d="M1405 421 c-6 -11 13 -26 22 -17 4 3 0 6 -8 6 -11 0 -11 2 1 10 9 6
10 10 3 10 -6 0 -14 -4 -18 -9z"/>
<path d="M1796 422 c-3 -5 1 -9 9 -9 8 0 12 4 9 9 -3 4 -7 8 -9 8 -2 0 -6 -4
-9 -8z"/>
<path d="M3470 421 c0 -6 4 -12 8 -15 5 -3 9 1 9 9 0 8 -4 15 -9 15 -4 0 -8
-4 -8 -9z"/>
<path d="M4283 417 c0 -8 6 -14 14 -14 9 0 10 4 2 14 -6 7 -12 13 -14 13 -1 0
-2 -6 -2 -13z"/>
<path d="M907 289 c6 -22 20 -26 20 -4 0 8 -6 16 -13 19 -7 3 -10 -2 -7 -15z"/>
<path d="M4180 276 c0 -2 7 -7 16 -10 8 -3 12 -2 9 4 -6 10 -25 14 -25 6z"/>
<path d="M1235 99 c-4 -6 -5 -12 -2 -15 2 -3 7 2 10 11 7 17 1 20 -8 4z"/>
</g>
</svg>
